<svg version="1.2" xmlns="http://www.w3.org/2000/svg" viewBox="0 0 1143 768" width="1143" height="768">
	<title>LOGOBONGODELUXE_ok-ai</title>
	<defs>
		<linearGradient id="g1" x2="1" gradientUnits="userSpaceOnUse" gradientTransform="matrix(-1.6,-302.44,715.14,-3.784,533.566,737.432)">
			<stop offset=".042" stop-color="#939598"/>
			<stop offset=".21" stop-color="#f1f2f2"/>
			<stop offset=".344" stop-color="#939598"/>
			<stop offset=".485" stop-color="#f1f2f2"/>
			<stop offset=".598" stop-color="#a7a9ac"/>
			<stop offset=".719" stop-color="#d1d3d4"/>
			<stop offset="1" stop-color="#e6e7e8"/>
		</linearGradient>
		<linearGradient id="g2" x2="1" gradientUnits="userSpaceOnUse" gradientTransform="matrix(-35.016,-78.341,78.339,-35.015,85.108,639.657)">
			<stop offset=".042" stop-color="#939598"/>
			<stop offset=".21" stop-color="#f1f2f2"/>
			<stop offset=".344" stop-color="#939598"/>
			<stop offset=".485" stop-color="#f1f2f2"/>
			<stop offset=".598" stop-color="#a7a9ac"/>
			<stop offset=".719" stop-color="#d1d3d4"/>
			<stop offset="1" stop-color="#e6e7e8"/>
		</linearGradient>
		<linearGradient id="g3" x2="1" gradientUnits="userSpaceOnUse" gradientTransform="matrix(-20.091,-44.949,44.948,-20.09,207.494,678.314)">
			<stop offset=".042" stop-color="#939598"/>
			<stop offset=".21" stop-color="#f1f2f2"/>
			<stop offset=".344" stop-color="#939598"/>
			<stop offset=".485" stop-color="#f1f2f2"/>
			<stop offset=".598" stop-color="#a7a9ac"/>
			<stop offset=".719" stop-color="#d1d3d4"/>
			<stop offset="1" stop-color="#e6e7e8"/>
		</linearGradient>
		<linearGradient id="g4" x2="1" gradientUnits="userSpaceOnUse" gradientTransform="matrix(-20.091,-44.949,44.948,-20.09,138.662,212.841)">
			<stop offset=".042" stop-color="#939598"/>
			<stop offset=".21" stop-color="#f1f2f2"/>
			<stop offset=".344" stop-color="#939598"/>
			<stop offset=".485" stop-color="#f1f2f2"/>
			<stop offset=".598" stop-color="#a7a9ac"/>
			<stop offset=".719" stop-color="#d1d3d4"/>
			<stop offset="1" stop-color="#e6e7e8"/>
		</linearGradient>
		<linearGradient id="g5" x2="1" gradientUnits="userSpaceOnUse" gradientTransform="matrix(-10.689,-23.915,23.915,-10.689,922.851,132.692)">
			<stop offset=".042" stop-color="#939598"/>
			<stop offset=".21" stop-color="#f1f2f2"/>
			<stop offset=".344" stop-color="#939598"/>
			<stop offset=".485" stop-color="#f1f2f2"/>
			<stop offset=".598" stop-color="#a7a9ac"/>
			<stop offset=".719" stop-color="#d1d3d4"/>
			<stop offset="1" stop-color="#e6e7e8"/>
		</linearGradient>
		<linearGradient id="g6" x2="1" gradientUnits="userSpaceOnUse" gradientTransform="matrix(-31.944,-71.467,71.466,-31.943,1039.495,373.153)">
			<stop offset=".042" stop-color="#939598"/>
			<stop offset=".21" stop-color="#f1f2f2"/>
			<stop offset=".344" stop-color="#939598"/>
			<stop offset=".485" stop-color="#f1f2f2"/>
			<stop offset=".598" stop-color="#a7a9ac"/>
			<stop offset=".719" stop-color="#d1d3d4"/>
			<stop offset="1" stop-color="#e6e7e8"/>
		</linearGradient>
		<linearGradient id="g7" x2="1" gradientUnits="userSpaceOnUse" gradientTransform="matrix(-15.614,-34.932,34.932,-15.613,935.299,609.563)">
			<stop offset=".042" stop-color="#939598"/>
			<stop offset=".21" stop-color="#f1f2f2"/>
			<stop offset=".344" stop-color="#939598"/>
			<stop offset=".485" stop-color="#f1f2f2"/>
			<stop offset=".598" stop-color="#a7a9ac"/>
			<stop offset=".719" stop-color="#d1d3d4"/>
			<stop offset="1" stop-color="#e6e7e8"/>
		</linearGradient>
	</defs>
	<style>
		.s0 { fill: #000000 } 
		.s1 { fill: #bdcf00 } 
		.s2 { fill: #934894 } 
		.s3 { fill: #e32084 } 
		.s4 { fill: #fffc31 } 
		.s5 { fill: url(#g1) } 
		.s6 { fill: #b3b3b3 } 
		.s7 { fill: #f2f2f2 } 
		.s8 { fill: url(#g2) } 
		.s9 { fill: url(#g3) } 
		.s10 { fill: url(#g4) } 
		.s11 { fill: url(#g5) } 
		.s12 { fill: url(#g6) } 
		.s13 { fill: url(#g7) } 
	</style>
	<g id="Capa 1">
		<g id="&lt;Group&gt;">
			<g id="&lt;Group&gt;">
				<g id="&lt;Group&gt;">
					<g id="&lt;Group&gt;">
						<path id="&lt;Path&gt;" class="s0" d="m1019.9 206.8c-44.3 63.2-153.2 197.6-384.8 388.2-12.4 10.2-28.1 15.8-44.1 15.6-11.9-0.1-23.7-3.3-34-9.3-64.5-37.9-237.6-148.5-449.8-357.5-15.1-14.9-20.4-36.6-13.9-56.7 6.5-20 23.5-34.5 44.4-37.7 65.8-10.1 187.3-24.9 367.9-31.6l-0.1 11.4c34.9-1.3 71.9-2.3 111.3-3l0.1-11.4c45.2-0.7 93.4-1 144.6-0.5 69.2 0.6 141.6 2.3 215 5.2 20.7 0.8 38.5 12.4 47.7 30.9 9.1 18.5 7.5 39.6-4.3 56.4z"/>
						<g id="&lt;Group&gt;">
							<path id="&lt;Path&gt;" class="s1" d="m1011.5 193c-55.9 79.6-172.8 213-381.9 385.1-16.9 14-40.8 15.9-59.8 4.8-67.9-39.9-237.6-149.1-446.7-355.1-23.2-22.8-10.5-62.3 21.7-67.2 69.2-10.7 187.8-24.7 360.7-31.4 34.9-1.3 71.9-2.3 111.3-3 104.9-1.7 225.9-0.8 363.7 4.6 31.3 1.3 49 36.6 31 62.2z"/>
						</g>
						<g id="&lt;Group&gt;">
							<path id="&lt;Path&gt;" class="s0" d="m298.7 272.2c-55.1-0.5-100-42.2-104.6-97.2-2.3-28.2 6.5-55.6 24.8-77.2 18.2-21.5 43.8-34.7 72-37 3.2-0.3 6.5-0.4 9.8-0.4 55 0.5 100 42.2 104.5 97.2 4.8 58.2-38.6 109.4-96.8 114.3-3.3 0.2-6.5 0.3-9.7 0.3z"/>
						</g>
						<g id="&lt;Group&gt;">
							<path id="&lt;Path&gt;" class="s0" d="m483.3 265c-50.8-0.5-92.3-39-96.4-89.7-2.2-26 5.9-51.2 22.8-71.1 16.8-20 40.4-32.1 66.4-34.3 3-0.2 6-0.3 9-0.3 50.8 0.4 92.2 39 96.4 89.6 2.2 26-5.9 51.3-22.8 71.2-16.9 19.9-40.5 32.1-66.5 34.2-2.9 0.3-6 0.4-8.9 0.4z"/>
						</g>
						<g id="&lt;Group&gt;">
							<path id="&lt;Path&gt;" class="s0" d="m842.7 254.9c-55.1-0.5-100-42.3-104.6-97.2-2.3-28.2 6.5-55.6 24.8-77.2 18.3-21.6 43.9-34.7 72.1-37.1 3.2-0.2 6.5-0.4 9.7-0.3 55.1 0.4 100 42.2 104.5 97.1 4.9 58.2-38.6 109.5-96.8 114.3-3.2 0.3-6.5 0.4-9.7 0.4z"/>
						</g>
						<g id="&lt;Group&gt;">
							<path id="&lt;Path&gt;" class="s0" d="m658.8 265c-50.8-0.5-92.2-39-96.4-89.7-2.1-26 6-51.2 22.8-71.1 16.9-19.9 40.5-32.1 66.5-34.2 3-0.3 6-0.4 9-0.4 50.8 0.5 92.2 39 96.4 89.6 2.1 26-6 51.3-22.8 71.2-16.9 19.9-40.5 32.1-66.5 34.2-3 0.3-6 0.4-9 0.4z"/>
						</g>
						<g id="&lt;Group&gt;">
							<path id="&lt;Path&gt;" class="s2" d="m397.6 153.4c4.1 49.8-32.9 93.6-82.8 97.7-49.9 4.1-93.6-32.9-97.8-82.8-4.1-49.9 33-93.6 82.9-97.8 49.8-4.1 93.6 33 97.7 82.9z"/>
							<path id="&lt;Path&gt;" class="s2" d="m573.9 155c3.8 45.4-29.9 85.1-75.2 88.9-45.4 3.7-85.2-30-88.9-75.3-3.8-45.3 29.9-85.1 75.3-88.9 45.3-3.7 85.1 30 88.8 75.3z"/>
							<path id="&lt;Path&gt;" class="s2" d="m749.5 155c3.7 45.4-30 85.2-75.3 88.9-45.3 3.8-85.1-30-88.9-75.3-3.7-45.3 30-85.1 75.3-88.9 45.4-3.7 85.2 30 88.9 75.3z"/>
							<path id="&lt;Path&gt;" class="s2" d="m941.7 136c4.1 49.9-33 93.7-82.9 97.8-49.8 4.1-93.6-33-97.7-82.8-4.1-49.9 32.9-93.7 82.8-97.8 49.9-4.1 93.6 33 97.8 82.8z"/>
						</g>
						<g id="&lt;Group&gt;">
							<path id="&lt;Compound Path&gt;" fill-rule="evenodd" class="s0" d="m960.2 496.1c-6.3-0.1-12.5-0.6-18.5-1.5-5.9-0.9-11.8-2.3-17.5-4.1-11.2-3.4-21.9-8.4-31.8-14.7-9.9-6.3-18.9-13.9-26.8-22.7-7.9-8.8-14.7-18.6-20.2-29.2-5.5-10.6-9.7-22-12.7-34.1-3-12.1-4.5-24.8-4.4-37.8 0.2-12.7 1.7-25.3 4.7-37.5 3-12.2 7.2-23.8 12.7-34.6 5.5-10.8 12.3-20.9 20-29.9 7.9-9.1 16.8-17.1 26.5-23.8 4.5-3 9.1-5.8 13.9-8.2 2.9-1.4 5.9-2.8 8.9-4q4.6-1.9 9.1-3.3c11.5-3.7 23.8-5.6 36.5-5.4 19.9 0.1 38.3 3.7 54.8 10.5 16.7 6.9 31.1 16.8 42.9 29.5 11.7 12.6 20.8 28 27.1 45.6 6.2 17.4 9.3 36.9 9.1 58.1-0.1 13.2-1.7 26.1-4.6 38.4-3 12.3-7.3 24-12.8 34.8-5.5 10.9-12.3 20.9-20.2 30-7.9 9.1-16.9 17-26.8 23.4-9.9 6.6-20.9 11.7-32.5 15.2-11.7 3.6-24.2 5.4-37.2 5.3zm1.6-175.4c-3.8 0-7.2 0.6-10 2-3 1.4-5.5 3.4-7.7 5.9-2.3 2.7-4 5.8-5.3 9.6-1.3 3.9-2 8.2-2.1 12.7 0 4.5 0.6 9 1.7 13.5 1.1 4.3 2.8 8.2 5 11.6 2 3 4.3 5.4 7.2 7.2 2.3 1.5 5.1 2.3 8.4 2.3 3.8 0 7-0.7 9.8-2.1 3.1-1.6 5.6-3.7 7.7-6.4 2.4-3 4.2-6.6 5.5-10.6 1.4-4.2 2.1-8.6 2.2-13.1 0-4.5-0.6-9-1.8-13.2-1.1-4-2.7-7.6-4.8-10.6-1.9-2.7-4.3-4.9-7.1-6.6-2.4-1.5-5.2-2.2-8.7-2.2z"/>
							<path id="&lt;Compound Path&gt;" fill-rule="evenodd" class="s0" d="m140.7 496.7c-7.9-0.1-16.3-0.5-24.8-1.1-8.6-0.7-17.4-1.8-25.9-3.3-8.7-1.5-17.3-3.5-25.7-6-8.6-2.6-16.9-5.9-24.6-9.7-4.6-2.3-7.4-6.9-7.3-12l1.7-239.8c0-5.4 3.3-10.2 8.3-12.2 7.3-2.9 15.3-5.6 23.5-8 8.2-2.3 16.7-4.3 25.2-5.8 8.5-1.6 17.1-2.7 25.5-3.5 8.5-0.8 16.9-1.2 24.8-1.1 9.3 0.1 18.9 0.8 28.3 2 9.8 1.3 19.3 3.5 28.3 6.4 9.2 2.9 17.9 6.8 25.8 11.5 8.4 4.9 15.8 11.1 22.1 18.2 6.4 7.3 11.4 15.9 14.9 25.5 3.5 9.6 5.2 20.6 5.1 32.7 0 8.3-1.3 16.2-3.8 23.6-2.5 7.5-6.1 14.3-10.8 20.3-3.2 4.1-7 7.8-11.1 11.1 6.9 4.7 13 10.3 18 16.7 5.6 7 9.9 15 12.8 23.7 3 8.8 4.4 18.1 4.3 27.9-0.1 12.4-2.6 23.3-7.4 32.6-4.7 9-11 16.7-18.7 23-7.5 6-16 11-25.6 14.7-8.9 3.4-18.4 6.2-28 8.1-9.5 1.9-19.2 3.1-28.7 3.7-9.3 0.6-18.1 0.8-26.2 0.8zm2.8-97.8q1.6-0.1 3.5-0.5c1.5-0.2 2.9-0.7 4.2-1.5 1-0.6 1.8-1.4 2.5-2.6 0.1 0 0.7-1 0.7-4.2 0-3.2-0.6-4.4-0.7-4.7-0.8-1.3-1.6-2.2-2.4-2.7-1.2-0.8-2.4-1.3-3.8-1.5q-1.9-0.4-3.6-0.6zm1.7-82.2q2-0.5 3.9-1.3c2-0.9 3.6-2.1 5-3.7 0.5-0.6 1.1-2.2 1.1-5 0-1.7-0.3-2.4-0.4-2.6q-0.8-1.4-1.9-2.3-1.4-1-2.9-1.4c-1.8-0.6-2.8-0.7-3.1-0.7q-0.6 0-1.1 0.1z"/>
							<path id="&lt;Compound Path&gt;" fill-rule="evenodd" class="s0" d="m354.8 488.6c-9.7-0.1-19.2-1.4-28-4-8.8-2.6-17.1-6.2-24.7-10.7-7.7-4.6-14.7-10.2-20.9-16.6-6.2-6.4-11.6-13.6-15.9-21.4-4.3-7.7-7.7-16.1-10-25-2.4-8.9-3.5-18.3-3.4-27.8 0-9.4 1.3-18.6 3.6-27.5 2.3-9 5.7-17.5 10-25.4 4.3-7.9 9.5-15.3 15.6-21.9 6.2-6.6 13.1-12.5 20.7-17.3 7.6-4.8 15.9-8.6 24.8-11.3 8.9-2.6 18.5-4 28.3-3.9 15.3 0.2 29.5 2.7 42.3 7.6 13 5.1 24.2 12.3 33.5 21.6 9.2 9.3 16.4 20.6 21.4 33.5 4.9 12.8 7.3 27.2 7.1 42.6 0 9.7-1.3 19.2-3.6 28.2-2.3 9-5.7 17.6-10 25.5-4.3 7.9-9.6 15.3-15.8 21.9-6.2 6.6-13.2 12.4-20.9 17.1-7.8 4.7-16.2 8.4-25.3 11-9 2.6-18.7 3.9-28.8 3.8zm1-123.6q-3.7 0-6.4 1.2c-1.9 0.8-3.4 1.9-4.7 3.4-1.4 1.5-2.4 3.2-3.2 5.3-0.9 2.4-1.3 4.8-1.3 7.5 0 2.7 0.3 5.5 1.1 8.3 0.7 2.5 1.8 4.8 3.2 6.9 1.1 1.7 2.6 3 4.3 4.1 1.3 0.7 2.9 1.1 5 1.1 2.4 0.1 4.5-0.3 6.2-1.2 1.9-0.9 3.4-2.1 4.7-3.6 1.5-1.7 2.6-3.8 3.4-6.1 0.9-2.6 1.4-5.1 1.4-7.8 0-2.8-0.4-5.5-1.1-8-0.8-2.4-1.7-4.4-3.1-6.2-1.1-1.5-2.5-2.7-4.2-3.7-1.4-0.8-3.1-1.2-5.3-1.2z"/>
							<path id="&lt;Path&gt;" class="s0" d="m453.6 492.6c-3.6 0-7-1.5-9.5-4.1-2.4-2.6-3.8-6.1-3.7-9.6l6.9-201.9c0.2-6.9 5.8-12.5 12.7-12.8l71.2-2.8q0.4 0 0.7 0c5 0 9.7 3 11.9 7.6l24.9 53 1.3-41.6c0.2-7.1 5.9-12.7 12.9-12.9l67.3-1.7q0.2 0 0.4 0c3.5 0 7 1.5 9.4 4.1 2.6 2.6 4 6.3 3.7 10l-11.9 193c-0.4 6.5-5.6 11.8-12.1 12.4l-74.7 6.2q-0.6 0-1.2 0c-5.4 0-10.4-3.5-12.3-8.6l-17.5-46.5-3 44.4c-0.5 7-6.3 12.4-13.3 12.3z"/>
							<path id="&lt;Path&gt;" class="s0" d="m748.1 501.7c-14.8-0.2-28.7-3-41.2-8.5-12.5-5.4-23.5-13.1-32.6-22.6-9-9.5-16.1-20.8-21.2-33.6-5-12.7-7.4-26.5-7.3-41.1 0.1-10.8 1.4-21.5 4-31.9 2.6-10.3 6.2-20.2 10.9-29.3 4.8-9.3 10.6-17.9 17.4-25.6 6.9-7.8 14.8-14.6 23.4-20.2 8.8-5.6 18.4-10.1 28.7-13.1 10.3-3.1 21.5-4.6 33.1-4.5 4.2 0 8.7 0.2 13.4 0.6 4.8 0.4 9.7 1 14.5 1.9 4.9 0.9 9.8 2.2 14.5 3.8 5 1.6 9.6 3.7 13.8 6.2 4.4 2.6 6.9 7.5 6.5 12.5l-4.2 51.6c-0.2 2-0.8 4-1.9 5.7q3.1-0.1 6.2-0.2 0.3 0 0.5 0c3.4 0 6.6 1.4 9.1 3.7 2.6 2.5 4 5.9 4.1 9.5l0.8 90.7c0 3.1-1 6.1-2.9 8.5-5.2 6.4-11.6 12-19.1 16.7-7 4.4-14.6 8-22.6 10.9-7.9 2.8-16 4.9-24.3 6.3-8.2 1.4-16.1 2-23.6 2z"/>
							<g id="&lt;Group&gt;">
								<g id="&lt;Group&gt;">
									<path id="&lt;Compound Path&gt;" fill-rule="evenodd" class="s3" d="m1085.9 342.8q-0.2 18.4-4.3 35.4-4.1 17.1-11.7 32-7.6 14.8-18.3 27.2-10.8 12.3-24.2 21.1-13.4 8.8-29 13.6-15.7 4.8-33.3 4.7h-0.2q-8.5-0.1-16.5-1.4-8-1.2-15.6-3.6-15.3-4.7-28.7-13.2-13.3-8.5-24-20.5-10.8-11.9-18.3-26.4-7.5-14.5-11.6-31.1-4.1-16.6-4-34.6 0.2-17.6 4.3-34.4 4.1-16.8 11.7-31.7 7.5-14.9 18.2-27.4 10.7-12.4 23.9-21.4 6-4 12.4-7.3 3.9-2 8-3.6 0 0 0 0 4-1.7 8.1-3 15.3-4.9 32.3-4.7 27.3 0.2 49.8 9.5 22.5 9.2 38.3 26.3 15.8 17 24.3 41 8.6 24 8.4 53.5zm-106.4 46.3q7.1-3.7 12.1-10 4.9-6.3 7.7-14.6 2.7-8.3 2.8-17.2 0-8.7-2.3-16.8-2.3-8.3-6.7-14.7-4.5-6.4-11.2-10.4-6.6-4-15.3-4-8.9-0.1-15.9 3.3-7 3.3-12 9.3-5.1 5.9-7.8 13.8-2.7 8-2.8 16.9-0.1 8.5 2.1 17 2.2 8.5 6.7 15.4 4.5 6.9 11.1 11.2 6.7 4.3 15.6 4.4 8.8 0.1 15.9-3.6z"/>
									<path id="&lt;Compound Path&gt;" fill-rule="evenodd" class="s3" d="m268.2 407.6q-0.1 15.5-5.9 26.6-5.8 11.1-15.3 18.9-9.6 7.7-22 12.5-12.4 4.9-25.9 7.6-13.4 2.6-26.9 3.4-13.5 0.9-25.2 0.8-11.6-0.1-24-1.1-12.3-0.9-24.6-3.1-12.3-2.1-24.2-5.7-11.8-3.5-22.4-8.8l1.7-239.8q10.4-4.2 22.2-7.6 11.7-3.3 24-5.5 12.2-2.3 24.3-3.4 12.1-1.1 23.5-1 13.2 0.1 26.7 1.9 13.4 1.8 25.9 5.8 12.4 4 23.2 10.4 10.7 6.3 18.7 15.5 8.1 9.2 12.5 21.3 4.5 12.2 4.3 28-0.1 10.4-3.1 19.5-3.1 9.1-8.7 16.3-5.7 7.2-13.7 12.3-8.1 5.1-18.1 7.4 12 3.3 22 9.5 9.9 6.2 16.8 15 6.9 8.8 10.6 19.8 3.7 11.1 3.6 23.5zm-120.6-46.4q-5.4-0.1-10.5 1l-1.1 42.5q2.8 0.5 5.5 1 2.7 0.5 5.3 0.5 3.9 0.1 8.6-0.7 4.7-0.8 8.8-3.3 4.1-2.5 6.8-6.7 2.8-4.3 2.8-11.4 0.1-7.1-2.6-11.5-2.6-4.5-6.5-7.1-3.9-2.5-8.6-3.4-4.6-0.9-8.5-0.9zm26.9-60.5q0.1-5.4-2.1-9.2-2.2-3.9-5.5-6.3-3.2-2.5-7-3.6-3.8-1.2-6.8-1.2-3.7 0-7.3 1.1-3.5 1.1-6.9 2.5l-1.4 41.3q4.2 0.1 10.6-0.6 6.3-0.7 12.2-3.2 5.9-2.4 10-7.3 4.2-4.9 4.2-13.5z"/>
									<path id="&lt;Compound Path&gt;" fill-rule="evenodd" class="s3" d="m452.1 375q-0.1 12.9-3.2 24.9-3.1 12-8.8 22.5-5.7 10.5-13.8 19.2-8.1 8.7-18.2 14.9-10.1 6.1-22 9.5-11.8 3.4-25 3.3-12.9-0.1-24.4-3.5-11.6-3.4-21.7-9.3-10-6-18.2-14.4-8.1-8.4-13.7-18.7-5.7-10.2-8.8-21.9-3.1-11.7-3-24.4 0.1-12.4 3.2-24.2 3.1-11.9 8.8-22.4 5.7-10.5 13.7-19.2 8.1-8.8 18-15.1 10-6.3 21.6-9.8 11.5-3.5 24.3-3.4 20.7 0.2 37.6 6.8 17 6.5 28.9 18.5 12 12 18.4 28.9 6.5 17 6.3 37.8zm-63.2 3.1q0-6.1-1.7-11.9-1.7-5.8-5.1-10.3-3.4-4.5-8.4-7.3-5-2.8-11.6-2.9-6.7-0.1-12 2.3-5.3 2.4-9.1 6.6-3.8 4.1-5.8 9.7-2.1 5.7-2.1 11.9-0.1 6 1.6 12 1.6 6 5 10.9 3.4 4.8 8.4 7.9 5.1 3 11.7 3.1 6.7 0 12.1-2.6 5.4-2.6 9.1-7 3.7-4.5 5.8-10.3 2-5.8 2.1-12.1z"/>
									<path id="&lt;Compound Path&gt;" class="s3" d="m656.7 273l-11.9 193-74.7 6.2-39-103.7-7.2 105.3-64-0.5 6.8-201.9 71.2-2.8 48.4 102.9 3.1-96.8z"/>
									<path id="&lt;Compound Path&gt;" class="s3" d="m833.5 451.4q-6.4 7.9-15.8 13.8-9.3 5.9-20 9.7-10.8 3.8-22 5.7-11.2 1.8-21.3 1.7-19.6-0.1-36-7.3-16.5-7.1-28.3-19.6-11.9-12.5-18.5-29.3-6.6-16.8-6.4-36.1 0.1-14.7 3.6-28.8 3.5-14.1 9.9-26.5 6.4-12.5 15.5-22.9 9.2-10.4 20.7-17.8 11.5-7.5 25.2-11.6 13.7-4 29.2-3.9 5.8 0.1 12.5 0.6 6.6 0.5 13.1 1.7 6.6 1.2 12.8 3.3 6.1 2.1 11.3 5.1l-4.3 51.6q-7.5-2.9-15.5-4-8.1-1.1-15.8-1.2-10.8-0.1-20.2 3.2-9.4 3.2-16.4 9.3-7 6.2-11.1 15.1-4.2 8.9-4.3 20.1 0 7 1.8 13.6 1.8 6.5 5.6 11.6 3.9 5.1 9.6 8.3 5.7 3.1 13.2 3.2 5.2 0 10.7-1.3 5.4-1.3 9.4-4.5l0.6-10.5-32.4-0.8 2-40.5q20.1-0.5 40.2-0.8 20.2-0.3 40.6-1z"/>
								</g>
							</g>
							<path id="&lt;Path&gt;" class="s0" d="m274.7 226.2q-4.4-29.4-8.5-58.4c-2.8-19.4-5.5-39.1-8.1-58.6l-1.3-9.3 63.5-10.5 0.6 10.8c0.7 12.2 1.5 24.7 2.4 37.2 0.6 8.9 1.4 17.9 2.4 26.9l5.6-0.9q4.6-0.8 9-1.6 4.6-0.8 9.4-1.6l10.5-1.8 4 56.6-87.9 21.7z"/>
							<path id="&lt;Compound Path&gt;" fill-rule="evenodd" class="s0" d="m491.3 222.4c-5.7 0-11.3-0.8-16.5-2.4-5.1-1.5-10-3.6-14.5-6.2-4.5-2.7-8.6-6-12.3-9.8-3.6-3.7-6.7-8-9.3-12.6-2.5-4.5-4.5-9.4-5.9-14.6-1.3-5.2-2-10.7-2-16.4 0.1-5.4 0.8-10.8 2.2-16.1 1.3-5.2 3.3-10.2 5.8-14.8 2.5-4.7 5.6-9 9.2-12.9 3.6-3.9 7.7-7.3 12.1-10.1 4.5-2.9 9.4-5.1 14.6-6.7 5.3-1.5 10.9-2.3 16.7-2.3 8.9 0.1 17.2 1.6 24.7 4.5 7.6 2.9 14.3 7.2 19.7 12.7 5.5 5.5 9.7 12.1 12.6 19.7 2.9 7.5 4.3 15.9 4.2 24.9 0 5.7-0.7 11.3-2.1 16.5-1.4 5.3-3.3 10.4-5.9 15-2.5 4.7-5.6 9-9.2 12.8-3.7 3.9-7.8 7.3-12.4 10.1-4.5 2.8-9.5 5-14.8 6.5-5.3 1.5-11 2.3-16.9 2.2zm0.6-70.6q-1.8 0-3 0.5-1.3 0.6-2.2 1.6-0.9 1-1.4 2.5-0.7 1.7-0.7 3.7c0 1.4 0.2 2.8 0.6 4.3 0.4 1.3 0.9 2.4 1.6 3.4q0.8 1.1 1.9 1.8c0.2 0.1 0.8 0.4 2 0.5q1.7 0 2.8-0.6c0.9-0.4 1.6-0.9 2.2-1.6 0.7-0.8 1.2-1.8 1.6-3 0.5-1.2 0.7-2.5 0.7-3.9 0-1.4-0.2-2.7-0.6-4.1q-0.5-1.7-1.4-3-0.8-1-2-1.6-0.8-0.5-2.1-0.5z"/>
							<path id="&lt;Path&gt;" class="s0" d="m675 227.3c-7.6 0.9-15.1 0.4-22.1-1.6-7-2.1-13.3-5.3-18.9-9.7-5.5-4.3-10.1-9.8-13.8-16.1-3.6-6.4-6-13.6-6.9-21.3-1.2-9.6-0.9-19 0.8-27.9 1.7-9.2 5-17.5 9.7-24.9 4.9-7.4 11.3-13.7 19.1-18.7 7.8-4.9 17.2-8.1 27.8-9.4 3.9-0.5 8.1-0.7 12.3-0.5 4.6 0.1 9.1 0.9 13.2 2.3l6.1 2-0.5 49.4-10-1.5q-1.5-0.2-3.1-0.2-1.8 0-3.5 0.2c-3 0.4-5.7 1.1-8.3 2.2-2.2 1-4.1 2.3-5.7 3.9-1.5 1.4-2.6 3.1-3.3 5.2-0.7 1.9-0.9 4.3-0.6 7 0.2 1.4 0.5 2.6 1 3.4 0.4 0.6 0.8 1.1 1.3 1.4q1 0.7 2.5 0.9 2 0.3 4.5 0 2-0.2 4.1-0.9 2.5-0.9 4.9-2 2.4-1.2 4.7-2.6 2.3-1.4 4.2-2.8l13.4-10.2 2.3 58.1-4.1 2.8c-2.2 1.5-4.6 2.9-7.2 4.1-2.5 1.2-5 2.3-7.7 3.3-2.6 1-5.4 1.9-8.1 2.6-2.8 0.7-5.5 1.2-8.1 1.5z"/>
							<path id="&lt;Compound Path&gt;" fill-rule="evenodd" class="s0" d="m852.4 212.2c-6.2 0-12.3-0.7-18.1-2.2-5.7-1.5-11.1-3.7-16.1-6.6-5-2.8-9.7-6.3-13.8-10.4-4.1-4-7.6-8.6-10.5-13.6-2.9-4.9-5.2-10.3-6.9-15.9-1.6-5.7-2.5-11.8-2.6-18-0.1-6 0.6-11.9 1.9-17.7 1.4-5.8 3.4-11.4 6.1-16.5 2.7-5.2 6-10 9.8-14.4 3.8-4.4 8.2-8.2 13.1-11.4 4.8-3.3 10.2-5.9 15.8-7.7 5.8-1.9 11.9-2.9 18.3-3 9.8-0.1 19 1.3 27.3 4.3 8.5 3.1 15.9 7.6 22 13.5 6.1 5.9 11 13 14.4 21.4 3.3 8.1 5.1 17.3 5.2 27.3 0.1 6.2-0.5 12.3-1.9 18.2-1.4 5.8-3.4 11.4-6.1 16.6-2.6 5.1-6 10-9.8 14.3-4 4.4-8.4 8.2-13.3 11.4-4.9 3.2-10.4 5.7-16.2 7.5-5.8 1.8-12.1 2.8-18.6 2.9zm-1.1-77.7q-1.9 0.1-3.2 0.7-1.4 0.6-2.4 1.7-1 1.2-1.5 2.8c-0.4 1.3-0.6 2.6-0.6 4.1 0 1.5 0.2 3.1 0.7 4.7 0.4 1.4 1 2.6 1.8 3.7q0.9 1.2 2.2 2c0.2 0.1 0.8 0.4 2.2 0.4q1.9 0 3.1-0.6c0.9-0.5 1.7-1.1 2.3-1.9 0.7-0.9 1.3-2 1.7-3.3 0.5-1.4 0.7-2.8 0.7-4.3 0-1.6-0.3-3-0.7-4.5-0.5-1.3-1-2.3-1.7-3.2q-0.9-1.1-2.2-1.8-0.9-0.5-2.4-0.5z"/>
							<g id="&lt;Group&gt;">
								<path id="&lt;Compound Path&gt;" class="s4" d="m355.4 166.7l2.6 37.8-69.6 17.3q-4.4-29.4-8.5-58.4-4.2-29-8.1-58.4l43.6-7.3q1.1 18.7 2.4 37.3 1.2 18.6 3.6 37.4 3.9-0.5 7.8-1.2 3.8-0.6 7.8-1.3 4.7-0.7 9.2-1.6 4.5-0.8 9.2-1.6z"/>
								<path id="&lt;Compound Path&gt;" fill-rule="evenodd" class="s4" d="m547.7 157.1q0 7.4-1.8 14.3-1.8 6.8-5 12.8-3.3 6-7.9 11-4.7 4.9-10.4 8.5-5.8 3.5-12.5 5.4-6.8 2-14.4 1.9-7.3-0.1-13.9-2-6.6-1.9-12.4-5.3-5.7-3.5-10.3-8.3-4.7-4.7-7.9-10.6-3.3-5.8-5-12.5-1.8-6.7-1.7-13.9 0-7.1 1.8-13.9 1.7-6.8 5-12.7 3.3-6 7.9-11 4.6-5 10.2-8.7 5.7-3.6 12.3-5.5 6.6-2 14-2 11.7 0.1 21.4 3.9 9.7 3.7 16.5 10.6 6.8 6.8 10.5 16.5 3.7 9.7 3.6 21.5zm-36.1 1.8q0-3.5-0.9-6.8-1-3.3-3-5.8-1.9-2.6-4.8-4.2-2.8-1.6-6.6-1.7-3.8 0-6.8 1.4-3 1.3-5.2 3.7-2.2 2.4-3.4 5.6-1.1 3.2-1.1 6.8-0.1 3.4 0.9 6.8 0.9 3.4 2.8 6.2 2 2.8 4.8 4.5 2.9 1.7 6.7 1.8 3.9 0 6.9-1.5 3.1-1.4 5.2-4 2.2-2.5 3.3-5.9 1.2-3.3 1.2-6.9z"/>
								<path id="&lt;Compound Path&gt;" class="s4" d="m697.3 105.3l-0.3 32.8q-2.3-0.3-4.6-0.3-2.2 0.1-4.5 0.4-5.6 0.7-10.6 2.8-4.9 2.1-8.5 5.7-3.6 3.5-5.3 8.4-1.8 4.9-1 11.1 0.5 4 2.1 6.8 1.6 2.7 4.1 4.3 2.6 1.7 5.8 2.2 3.3 0.5 7 0.1 2.9-0.4 5.9-1.4 3-1 5.8-2.3 2.9-1.4 5.6-3 2.7-1.7 4.9-3.4l1.3 36.4q-2.8 1.9-6.1 3.6-3.3 1.6-6.9 2.9-3.6 1.4-7.2 2.3-3.6 0.9-7 1.3-9.7 1.2-18.6-1.4-8.9-2.5-15.9-8-7-5.6-11.6-13.7-4.6-8.1-5.8-18-1.7-13.1 0.7-25.1 2.3-12.1 8.5-21.8 6.2-9.6 16.3-16 10.2-6.4 24.2-8.1 5.3-0.7 11-0.5 5.6 0.1 10.7 1.9z"/>
								<path id="&lt;Compound Path&gt;" fill-rule="evenodd" class="s4" d="m912.9 139q0.1 8.1-1.7 15.7-1.7 7.6-5.2 14.2-3.4 6.7-8.4 12.3-4.9 5.5-11.2 9.6-6.2 4-13.6 6.3-7.4 2.3-15.7 2.4-8.1 0.1-15.4-1.8-7.3-2-13.7-5.6-6.4-3.6-11.7-8.8-5.2-5.1-8.9-11.5-3.7-6.3-5.8-13.6-2.1-7.3-2.3-15.3-0.1-7.8 1.7-15.3 1.8-7.4 5.2-14.1 3.4-6.7 8.4-12.3 4.9-5.6 11.1-9.7 6.1-4.1 13.3-6.5 7.2-2.3 15.3-2.4 13-0.2 23.7 3.6 10.7 3.9 18.4 11.3 7.7 7.3 12 17.9 4.3 10.5 4.5 23.6zm-39.7 2.9q0-3.9-1.2-7.5-1.2-3.6-3.4-6.4-2.2-2.8-5.4-4.5-3.2-1.7-7.3-1.6-4.2 0-7.5 1.6-3.2 1.6-5.6 4.3-2.3 2.6-3.5 6.2-1.2 3.5-1.2 7.5 0.1 3.7 1.2 7.5 1.2 3.7 3.3 6.7 2.2 3 5.4 4.9 3.2 1.8 7.4 1.7 4.2 0 7.6-1.7 3.3-1.7 5.6-4.6 2.3-2.8 3.5-6.5 1.2-3.7 1.1-7.6z"/>
							</g>
						</g>
					</g>
				</g>
			</g>
			<g id="&lt;Group&gt;">
				<path id="&lt;Compound Path&gt;" fill-rule="evenodd" class="s0" d="m871.7 579q-0.1 0-0.1 0.1c-1 2.3-2.6 5.5-5 9.9-2.3 4.2-5.2 8.8-8.5 13.7-3.5 5-7.5 10-12.1 14.8-4.9 5.1-10.3 9.5-16.2 13.1-6.3 3.9-13.1 6.5-20.2 7.8q-3.8 0.7-7.7 0.7c-5.6 0-11.3-1-17-3.1q-0.1 0-0.1-0.1c-5.9-2.1-10.9-5.8-14.7-10.6q-3.8 4.2-8 7.9c-6.8 5.9-14.1 9.3-21.7 10.2q-1.4 0.2-2.9 0.2c-4.3 0-8.5-1.1-12.4-3.4-3.1-1.7-6.1-4.1-8.8-7.1q-2.1 3.7-5.8 6.9c-3.3 2.9-7.1 5-11.2 6.5-3 1-6.2 1.6-9.3 1.6q-2.7 0-5.4-0.6c-4.8-0.9-9.1-3.5-12.3-7.4q-3.3 3.3-6.7 6.3c-7 6.2-13.8 9.7-20.5 10.7q-1.4 0.2-2.9 0.2c-6.3 0-12.1-3.3-15.8-9-1.8-2.9-3.2-6.3-4.2-10.4q-1.3 1.6-2.6 3.2c-4.7 5.9-9.1 10.5-13.4 14.2-5.8 4.9-11.3 7.3-16.8 7.3q-1.1 0-2.3-0.2-0.1 0-0.2 0c-4.7-0.7-8.9-2.8-12.1-6q-2.4 2.3-4.8 4.5c-6.9 6.2-13.4 9.8-19.9 10.9q-1.8 0.3-3.6 0.3c-3.2 0-10.3-0.9-15.8-8.1q-5 5.5-10.8 9.9c-5.9 4.4-12.5 7.6-19.5 9.6-3.7 1-7.7 1.6-11.7 1.6-4.2 0-8.6-0.6-13.1-1.8q0 0-0.1 0c-8.3-2.3-15.2-7.4-19.9-14.8-3.4-5.4-5.7-11.6-7.1-18.6-4.6 7.6-9.5 14.8-14.8 21.5-6.5 8.2-13.3 15.6-20.3 21.8-7.2 6.5-14.2 11.6-20.9 15.3-7.6 4.1-14.8 6.4-21.5 6.6q-0.6 0-1.2 0c-5.6 0-10.6-1.6-14.7-4.6q-0.6 1.4-1.2 2.7c-2.5 5.6-5.5 9.6-8.9 12.4-4.5 3.6-8.7 4.4-11.5 4.4-2.7 0-5.4-0.7-7.8-2-5.7-3.2-8.8-9.2-9.3-18q0-0.1 0-0.1c-0.9-19.3-0.3-37.8 1.5-55.1 1.7-15.5 3-30.7 5.5-44.3-0.4 0.8-0.9 1.5-1.6 2-2.2 1.7-4.9 2.6-7.6 2.6-1.8 0-3.6-0.4-5.3-1.2-15-6.8-22.9-19.8-24.2-27.8-1.6-10 0.5-20.5 6.1-31.3 5.1-9.6 12.8-19.1 23-28.2 10.1-8.9 22.3-16.4 36.2-22.2q0.1 0 0.2 0c12.4-5 25.2-8.8 38.1-11.2 6.9-1.4 13.6-2.1 19.8-2.1 6.3 0 12.4 0.7 18 2q0.1 0.1 0.3 0.1c13 3.4 23.4 9.4 30.9 17.9 7.2 8.1 12.2 17.7 14.9 28.5 1.8 7.1 2.8 14.7 2.8 22.4q2.9-3 6-5.6c6.3-5 13.2-8.4 20.4-10q3.9-0.9 7.8-0.9c5.5 0 11.1 1.3 16.6 3.9q4.1 1.9 7.4 4.6c1.5-5 3.1-10.1 4.9-15.1 3-8.2 6.2-16.1 9.8-23.6 3.5-7.6 7.4-14.7 11.4-21.1 4.3-6.7 8.7-12.4 13.2-16.9 5-5 10.3-8.7 15.8-10.9 3.3-1.3 6.7-2 10-2 3.8 0 7.5 0.9 11 2.5q0.1 0 0.3 0.1c5.8 2.8 15 10.4 12.1 29.1-1.5 9.5-5.1 20.3-11 33.2-5.3 11.3-11.9 23.8-19.9 37.2q1.9-3.1 3.8-6.1c4.8-7.3 10-13.7 15.4-19.1l0.1-0.2c4.4-4.3 8.7-7.4 13.2-9.5 4.5-2 8.5-3 12.2-3q0.7 0 1.5 0c5.3 0.4 9.6 2.8 12.2 6.6 2.9-3.5 6.2-6.5 9.9-9 5-3.3 9.7-5.6 14.2-6.9 3-0.8 5.7-1.3 8.3-1.3 2.6 0 5 0.5 7.3 1.4 3.5 1.4 6.2 3.8 7.8 7q0 0 0 0c5.8 9.2-2.8 22.2-3.7 23.5l16-22.6 0.1-0.1c2.4-3.6 5.3-6.5 8.6-8.6 3.8-2.5 7.4-3.9 11-4.6q1.9-0.3 3.6-0.3c5.3 0 8.9 2.2 10.9 3.9 3.6 3.2 5.3 7.5 4.9 11.9 5.2-4.7 10.7-9.6 16.4-14.8q0.1-0.1 0.2-0.2c4-3.4 7.3-5.3 10.7-6.2q2.1-0.5 4-0.5c6.2 0 11.6 3.9 13.5 9.6q4.3-4.1 9-7.3c6.7-4.4 13.9-7.2 21.3-8.1q2.2-0.3 4.5-0.3c6.6 0 13.2 1.9 19.5 5.6 5.9 3.4 10.5 8.3 13.5 14.4 3.1 6.2 4.1 12.9 3 20.1q-0.7 5.1-2.9 10 0.4 0.1 0.8 0.2c6.7 1.2 11.4 6.3 12.4 13.3 0.6 4-0.1 8.3-2.3 13.7zm-447.3-19.3c-1.5-5.9-4.1-10.7-7.8-14.4-1.6-1.7-4.6-3.8-11.4-3.8q-0.5 0-1 0-3.1 0.2-6.1 0.6c-4.7 10.8-9.1 22.2-12.9 33.7-4.4 13.3-8.3 26.8-11.6 40.2-2.1 8.8-4 17.6-5.6 26.3 6.8-7.9 15-15.6 24.7-23.1 9.2-7.2 19.2-13.6 29.7-19.1 1.8-5.6 3-11.7 3.5-18.2 0.7-8 0.2-15.5-1.5-22.2z"/>
				<path id="&lt;Compound Path&gt;" fill-rule="evenodd" class="s5" d="m865.3 568.8q-1.2 2.9-4.4 8.8-3.2 5.8-7.9 12.6-4.6 6.7-10.8 13.3-6.2 6.5-13.7 11-7.4 4.6-15.9 6.2-8.5 1.6-18.1-1.9-7.8-2.9-11.6-10.4-3.1-6.2-3.9-14-3.1 4.7-6.6 9.5-6 8.1-13.3 14.4-7.2 6.3-14.9 7.3-3.8 0.4-7.5-1.7-3.8-2.1-7.2-6.4-3.3-4.2-6.2-10.1-2.9-5.8-5.1-12.8-5.9 8.5-8.1 15.1-2.2 6.6 1.3 9.8-0.7 2.9-3.8 5.6-3.2 2.7-7.2 4.1-3.9 1.4-8 0.6-4.1-0.8-6.5-5.4-3-5.6 3.6-16.3 6.5-10.8 25.2-29.9-0.6-4.3-0.6-8.6 0-4.2 0.3-8.7-4.4 6.5-8.8 13-4.4 6.5-8.3 12.9-0.3 0.6-0.7 1.2-2.1 4.3-6.8 11.3-5.5 8.4-12.5 17-7 8.6-14.7 15.3-7.7 6.7-14 7.7-3.8 0.5-6.2-3.1-2.4-3.7-3.4-10.4-1-6.7-0.5-15.9 0.4-9.2 2.5-19.3-6.1 9.7-12.8 19.5-6.7 9.9-13 17.7-6.4 7.8-11.9 12.5-5.5 4.8-9.2 4.3-5.3-0.8-7.3-6.4-1.8-5-1.2-12.3-2 2.4-4 4.9-7.1 8.6-14.7 15.4-7.6 6.7-13.6 7.8-6.1 1-9.4-6.6-2.7-6.4-3.5-16.6-0.3 0.6-0.6 1.1-4 7.2-9.6 14.2-5.6 7.1-12.6 12.3-7 5.2-15.3 7.6-8.3 2.3-18.2-0.2-8-2.2-12.4-9.3-4.5-7.1-5.9-17.1-1.3-9.9 0.3-21.6 1.1-7.9 3.2-15.4-1.3 0.3-2.6 0.6-4.6 1.2-8.5 2.6-4.7 14.2-12.4 27.7-7.6 13.5-16.7 25-9 11.4-18.8 20.2-9.7 8.7-18.5 13.6-8.8 4.8-16 5.1-7.2 0.2-10.7-5.3-5.1-7.3-1.1-18.4 4-11.1 14.1-23.5 10.2-12.4 25.5-24.3 15.4-12 33.2-20.7 4.7-12 5.9-26.7 1.3-14.6-1.9-27-3.1-12.5-11.3-20.7-8.1-8.1-22.4-7.6-3.6 0.3-7.2 0.7-3.6 0.4-7.1 1.2l-0.8 1.4q-8.8 19.6-15.8 40.7-7 21.2-12.2 42.4-5.1 21.3-8.4 41.7-3.2 20.5-4.5 38.1-0.7 7.8-3.3 13.4-2.6 5.5-5.5 7.9-2.9 2.3-5.2 1-2.4-1.3-2.8-7.5-1.2-28.1 1.5-53.2 2.8-25.1 7.2-46.4 4.5-21.4 10-38.9 5.4-17.5 9.7-30.3-10.6 5.5-19.7 12.8-9 7.2-15.3 15.2-6.2 7.9-9.4 16.3-3.1 8.3-2 15.7-12-5.5-13.8-16.4-1.7-11 4.8-23.5 6.6-12.5 20.2-24.6 13.7-12 32.7-19.9 17.6-7.1 35.8-10.6 18.1-3.5 32.6-0.1 15.9 4.1 24.6 14 8.8 9.9 12.1 23.2 3.4 13.3 2 28.4-1.4 15-5.4 29.1 2.2-0.5 5.2-1.3 2.4-0.7 5.7-1.3 3.5-8.7 8.5-16.4 5.9-9.1 13-14.9 7.1-5.8 15.2-7.5 8-1.8 16.3 2.1 6 2.8 9.4 8.3 3.4 5.5 3 12.5-0.4 7-5.1 14.7-4.7 7.6-14.5 15-4.4 3.2-9.3 5-4.8 1.8-9.3 2.8-4.6 1-8.6 1.2-4 0.2-6.8 0.3 0 4.1 0.1 9 0.1 4.8 0.9 9.1 0.8 4.2 2.6 7.4 1.8 3.2 5.1 4.2 7.2 2.3 14.8-1.6 7.6-4 14.2-10.3 6.5-6.3 11.4-13.5 4.9-7.2 6.7-11.5 0.1 0 0.1-0.1 0.4-5.6 1.1-11.7 2-17 6.6-34.7 2.9-12 7.1-23.8 4.3-11.7 9.3-22.5 5.1-10.8 10.7-19.7 5.7-8.9 11.5-14.7 5.7-5.8 11.5-8.1 5.7-2.3 11.1 0.2 7.1 3.5 5.1 15.8-1.9 12.3-10 29.8-8 17.6-20.8 38.8-12.8 21.2-27.2 42.4-0.6 13.3 2.3 19.6 2.9 6.3 6.3 6.2 1.8 0 5.3-2.4 3.5-2.4 7.5-6.3 4.1-3.8 7.8-8.4 3.4-4.3 5.7-8.2 3-8.8 7.3-17.5 5.3-10.8 11.8-20.8 6.6-9.9 13.8-17.2 5-4.9 9.6-7 4.6-2.2 7.5-1.9 2.9 0.2 3.2 2.2 0.3 2-3.6 5.7-4.5 4.3-8.9 10.6-4.4 6.2-8.3 13.2-3.9 6.9-7 14.1-3 7.2-4.6 13.3-1.5 6.1-1.4 10.3 0.1 4.3 2.6 5.5 1.1 0.6 4.5-3.1 3.3-3.8 7.7-10.2 4.3-6.3 9.6-14.3 5.3-7.9 10.3-15.8 4.9-7.8 9.2-14.7 4.3-6.9 7-11.2 4-6.3 9.8-10.2 5.8-3.8 10.6-5.2 4.9-1.4 7.5-0.3 2.6 1 0.2 4.2-3 4.1-6.7 11.2-3.8 7-7.5 15.2-3.7 8.2-6.9 17-3.2 8.8-5.5 16.2-2.3 7.3-2.9 12.5-0.7 5.1 1.1 6.4 1.4 1.1 4.8-0.8 3.3-1.9 7.3-5.7 4-3.7 7.8-8.3 3.9-4.6 6.4-8.8 1-1.9 2.1-3.2 3.4-5.4 6.9-10.6 4.6-6.8 8.9-13.1 4.3-6.4 8.1-11.9 3.9-5.5 7-9.7 0.9-1.4 1.5-2.9 0.5-1.5 1.7-3 2.5-4.4 6-6.6 3.5-2.3 6.3-2.7 2.8-0.5 4.1 0.6 1.3 1.2 0 3.1-4.6 7.1-6.1 16.3-1.4 9.2-0.8 18.7 9.3-8.6 20.4-18.9 11.2-10.3 24.5-22.3 3.5-3 5.5-3.5 2-0.5 2.5 0.9 0.4 1.4-0.7 3.8-1.2 2.5-3.7 5.1-10.4 10.3-22.8 23-12.4 12.6-23.6 25.3 2.6 10.6 6.8 18.1 4.1 7.5 9.2 8.7 3.4 0.9 7.3-1.6 3.8-2.6 7.7-6.7 3.9-4.1 7.4-9 3.6-5 6.2-9.2 0.3-2.1 0.8-4.2 2.7-11.5 7.6-22 4.8-10 11.4-18.5 6.7-8.5 14.4-13.6 7.6-5.1 15.8-6.1 8.1-1.1 16 3.6 5.8 3.3 8.6 9.1 2.9 5.8 1.9 12.8-1 6.9-6.4 14.1-5.4 7.2-15.9 13.6-4.6 2.8-9.7 4.1-5 1.4-9.6 2-4.6 0.6-8.6 0.4-4-0.1-6.8-0.4-0.4 4.2-0.7 9-0.4 4.8 0 9.1 0.4 4.4 1.9 7.7 1.5 3.4 4.7 4.6 7 3 14.9-0.2 8-3.2 15.1-8.9 7-5.7 12.6-12.4 5.6-6.8 7.7-10.8 2.2-4.1 4.6-6 2.4-1.9 4.3-1.6 1.8 0.4 2.2 2.8 0.3 2.4-1.6 7zm-63-9.6q2.6 0.1 7.6-0.4 4.9-0.5 12.1-4 6.9-3.5 10.4-7.2 3.5-3.6 4.6-7.1 1.1-3.5-0.1-6.2-1.1-2.7-3.3-4.1-3.3-2-7.9-0.5-4.7 1.5-9.3 5.5-4.6 4.1-8.6 10.4-3.9 6.3-5.5 13.6zm-244.9 24.5q7.3-12.4 14.6-25.4 7.3-12.9 12.7-24.8 5.4-11.9 8.2-22 2.8-10.1 1.3-17.4-4.4 1.8-8.7 7.7-4.3 6-8.5 14.9-4.2 8.9-8.1 20.4-3.9 11.5-7.2 24.3-1.6 6-2.7 11.5-1.2 5.5-1.6 10.8zm-71 22.1q2.6-0.3 7.5-1.2 4.9-0.9 11.7-5.1 6.6-4.1 9.7-8.1 3.2-4 4-7.5 0.7-3.5-0.7-6.1-1.4-2.7-3.7-3.8-3.4-1.7-7.9 0.2-4.5 1.9-8.7 6.3-4.3 4.5-7.6 11.1-3.3 6.7-4.3 14.2zm-52.4 10.1q-15.3 8.1-25 17.3-9.7 9.1-15 17.2-5.3 8.2-6.7 13.8-1.3 5.7 0.2 7 3.9 3.1 9.8-0.4 6-3.4 12.4-11.1 6.5-7.8 12.9-19.2 6.4-11.4 11.4-24.6z"/>
				<g id="&lt;Group&gt;">
					<path id="&lt;Compound Path&gt;" fill-rule="evenodd" class="s6" d="m361 533.5q-0.5 1.5-1.1 3.2-9 5-16.9 11.3-9 7.2-15.3 15.2-6.2 7.9-9.4 16.3-3.1 8.3-2 15.7-5.7-2.6-9.1-6.4 3 2.7 7.4 4.7-1.1-7.4 2-15.8 3.2-8.3 9.4-16.2 6.3-8 15.3-15.3 9.1-7.2 19.7-12.7zm67.8-3.5q-8-7.5-21.7-7-3.7 0.3-7.2 0.7-3.6 0.4-7.1 1.2l-0.8 1.4q-8.8 19.6-15.8 40.7-7 21.2-12.2 42.5-5.1 21.2-8.4 41.6-3.2 20.5-4.5 38.1-0.7 7.8-3.3 13.4-2.6 5.5-5.5 7.9-2.9 2.3-5.2 1-0.9-0.4-1.5-1.6 2.3 1.1 5-1.1 2.9-2.4 5.5-7.9 2.6-5.6 3.2-13.4 1.4-17.6 4.6-38.1 3.2-20.4 8.4-41.7 5.2-21.2 12.2-42.4 7-21.1 15.8-40.7l0.7-1.5q3.6-0.7 7.1-1.1 3.6-0.4 7.3-0.7 14.3-0.6 22.4 7.6 0.5 0.5 1 1.1zm38.8 70.7q-0.3 1.1-0.6 2.3-0.1 0-0.3 0-4.6 1.2-8.5 2.6-4.7 14.2-12.4 27.7-7.6 13.5-16.7 25-9 11.4-18.8 20.2-9.7 8.7-18.5 13.6-8.8 4.8-16 5.1-6.4 0.2-9.9-4.2 3.2 2.6 8.2 2.5 7.2-0.3 16-5.2 8.8-4.8 18.5-13.5 9.8-8.8 18.8-20.2 9.1-11.5 16.7-25 7.7-13.6 12.4-27.8 3.9-1.3 8.5-2.5 1.3-0.3 2.6-0.6zm-35.4 13.5q-0.6 1.7-1.2 3.4-13.3 7.4-22 15.6-9.7 9.1-15 17.2-5.3 8.2-6.7 13.8-1 4.2-0.4 6-0.5-0.3-1.1-0.7-1.6-1.3-0.2-7 1.4-5.7 6.7-13.8 5.3-8.1 15-17.3 9.6-9.1 24.9-17.2zm35.1-48.5q-1.3 13.8-4.8 26.8-1.2 0.3-2.3 0.5 4-14 5.4-29 1.4-15.1-2-28.4-3.3-13.3-12.1-23.2-0.3-0.4-0.7-0.8 1.3 1.2 2.4 2.5 8.8 9.9 12.1 23.2 3.4 13.3 2 28.4zm70.9 10.6q-0.4 7-5.1 14.7-4.7 7.6-14.5 15-4.4 3.2-9.3 5-4.8 1.8-9.3 2.8-4.6 1-8.6 1.2-4 0.2-6.9 0.3 0.1 4.1 0.2 9 0.1 4.8 0.9 9.1 0.8 4.2 2.6 7.4 0.3 0.6 0.7 1.2-1.4-1.1-2.4-2.9-1.8-3.2-2.6-7.5-0.8-4.2-0.9-9.1-0.2-4.8-0.2-9 2.9 0 6.9-0.2 4-0.2 8.5-1.2 4.6-1 9.4-2.8 4.9-1.9 9.3-5 9.8-7.4 14.5-15 4.7-7.7 5.1-14.7 0.4-7-3-12.5-1-1.7-2.3-3.1 2.3 2.1 4 4.8 3.4 5.5 3 12.5zm-22.2-1.6q-0.5-0.4-1.1-0.7-3.4-1.7-7.9 0.2-4.5 1.9-8.7 6.3-4.3 4.5-7.6 11.1-2.9 5.8-4 12.2-1.1 0.2-2 0.2 0.9-7.4 4.3-14.1 3.3-6.6 7.5-11.1 4.3-4.4 8.8-6.3 4.5-1.9 7.9-0.2 1.7 0.8 2.8 2.4zm23.1 58.4q-3.8 6.6-8.9 13-5.6 7.1-12.6 12.3-7 5.2-15.3 7.6-8.3 2.3-18.2-0.2-6.1-1.7-10.1-6.2 3.5 3.1 8.4 4.4 9.9 2.6 18.2 0.3 8.3-2.4 15.3-7.6 7-5.2 12.6-12.3 5.6-7.1 9.6-14.2 0.3-0.5 0.6-1.1 0.2 2.1 0.4 4zm44.7-9q-0.1 2.2-0.1 4.1-1 1.3-2.1 2.6-7.1 8.6-14.7 15.4-7.6 6.7-13.6 7.8-4.4 0.7-7.3-3 2.4 1.8 5.6 1.3 6-1.1 13.6-7.8 7.6-6.8 14.7-15.4 2-2.5 3.9-5zm30.7-135.3q-1.9 12.3-10 29.8-8 17.6-20.8 38.8-12.8 21.2-27.2 42.4-0.6 13.4 2.3 19.6 1.1 2.3 2.2 3.7-2-1.4-3.9-5.4-2.9-6.3-2.3-19.6 14.4-21.2 27.2-42.5 12.7-21.1 20.8-38.7 8.1-17.5 10-29.8 1.4-8.8-1.8-13.1 5.2 4 3.5 14.8zm-21.6 5.9q-3.7 2.1-7.4 7.1-4.3 6-8.5 14.9-4.2 8.9-8.1 20.4-3.9 11.5-7.2 24.3-1.6 6-2.7 11.5-0.6 2.6-0.9 5-1.2 2.1-2.4 4.1 0.4-5.3 1.6-10.8 1.1-5.5 2.7-11.5 3.3-12.8 7.2-24.3 3.9-11.5 8.1-20.4 4.2-8.9 8.5-14.9 4.3-5.9 8.7-7.7 0.2 1.1 0.4 2.3zm46.4 94.1q-0.7 3.2-1.2 6.3-4.7 7.5-9.9 15-6.7 9.9-13 17.7-6.4 7.8-11.9 12.5-5.5 4.8-9.2 4.3-3.6-0.5-5.7-3.3 1.7 1.2 4 1.6 3.7 0.5 9.2-4.3 5.5-4.7 11.9-12.5 6.3-7.8 13-17.7 6.7-9.8 12.8-19.6zm1.7-45q-4.5 4.3-8.9 10.6-4.4 6.2-8.3 13.2-3.9 6.9-7 14.1-3 7.2-4.6 13.3-1.5 6.1-1.4 10.3 0 2.3 0.8 3.7-2.4-1.2-2.5-5.4-0.2-4.2 1.4-10.3 1.6-6.1 4.6-13.3 3.1-7.2 7-14.1 3.9-7 8.3-13.2 4.4-6.3 8.9-10.6 3.9-3.7 3.6-5.7-0.1-0.1-0.1-0.3 1.6 0.5 1.8 2 0.3 2-3.6 5.7zm48.8-13.8q-3 4.1-6.7 11.2-3.8 7-7.5 15.2-3.7 8.2-6.9 17-3.2 8.8-5.5 16.2-2.3 7.3-2.9 12.5-0.5 3.3 0.1 5.1-0.4-0.1-0.7-0.4-1.8-1.3-1.1-6.4 0.6-5.2 2.9-12.5 2.3-7.4 5.5-16.2 3.2-8.8 6.9-17 3.7-8.2 7.5-15.3 3.7-7 6.7-11.1 1.2-1.6 1.1-2.6 0.2 0 0.4 0.1 2.6 1 0.2 4.2zm22.9 29.2q-0.2 2.3-0.2 4.5-3.5 5.1-6.9 10.2-4.4 6.5-8.3 12.9-0.3 0.6-0.7 1.2-2.1 4.3-6.8 11.3-5.5 8.4-12.5 17-7 8.6-14.7 15.3-7.7 6.7-14 7.7-3.6 0.5-5.8-2.6 1.7 1.2 4.1 0.9 6.3-1 14-7.7 7.7-6.8 14.7-15.3 7-8.6 12.5-17 4.7-7.1 6.8-11.3 0.3-0.6 0.7-1.2 3.9-6.4 8.3-12.9 4.4-6.5 8.8-13zm-1.3 60.3q-0.7 2.9-3.8 5.6-3.2 2.7-7.2 4.1-3.9 1.4-8 0.6-3-0.6-5.1-3.2 1.5 1.1 3.4 1.5 4.1 0.8 8-0.6 4-1.4 7.2-4.1 3.1-2.7 3.8-5.6-3.5-3.2-1.3-9.8 2.1-6.6 8.1-15.1 0.4 1.4 0.9 2.8-5.3 7.8-7.3 14-2.2 6.6 1.3 9.8zm28.9-94.6q-4.6 7.1-6.1 16.3-1.2 7.7-1 15.5-0.7 0.8-1.5 1.5-0.7-9.5 0.8-18.7 1.5-9.3 6-16.3 0.8-1.1 0.7-2 0.6 0.2 1.1 0.6 1.3 1.2 0 3.1zm37.5 71.3q-2.6 3.8-5.4 7.7-6 8.1-13.3 14.4-7.2 6.3-14.9 7.3-3.8 0.4-7.5-1.7-3-1.6-5.6-4.6 1.9 1.8 3.8 2.9 3.8 2.1 7.6 1.7 7.7-1 14.9-7.3 7.3-6.3 13.3-14.4 3.5-4.8 6.6-9.5 0.2 1.8 0.5 3.5zm7.8-76.3q-1.2 2.5-3.7 5.1-10.4 10.3-22.8 23-12.4 12.6-23.6 25.4 2.6 10.5 6.8 18 1.5 2.8 3.2 4.7-2.6-2.2-4.9-6.4-4.2-7.5-6.8-18.1 11.2-12.7 23.6-25.3 12.4-12.7 22.8-23 2.5-2.6 3.6-5.1 0.9-1.9 0.8-3.1 1.3-0.1 1.7 1 0.4 1.4-0.7 3.8zm71 14.8q-1 6.9-6.4 14.1-5.4 7.2-15.9 13.6-4.6 2.8-9.7 4.1-5 1.4-9.6 2-4.6 0.6-8.6 0.4-4-0.1-6.8-0.4-0.4 4.2-0.7 9-0.4 4.8 0 9.1 0.5 4.4 1.9 7.7 0.5 1 1.1 1.9-1.8-1.3-2.8-3.6-1.5-3.3-1.9-7.7-0.4-4.3-0.1-9.1 0.4-4.8 0.7-9 2.9 0.3 6.9 0.4 4 0.1 8.6-0.4 4.6-0.6 9.6-2 5.1-1.3 9.7-4.1 10.5-6.4 15.9-13.6 5.3-7.2 6.4-14.2 1-6.9-1.9-12.7-1.3-2.6-3.2-4.7 3.1 2.7 4.9 6.4 2.9 5.8 1.9 12.8zm-22.5-4.1q-0.2-0.2-0.5-0.4-3.3-2-7.9-0.5-4.7 1.5-9.3 5.5-4.6 4.1-8.6 10.4-3.4 5.5-5.1 11.9-1.2 0-2.1 0 1.6-7.3 5.5-13.6 3.9-6.3 8.6-10.4 4.6-4 9.3-5.5 4.6-1.5 7.9 0.5 1.3 0.8 2.2 2.1zm31.2 38.2q-1.2 2.9-4.4 8.8-3.2 5.8-7.9 12.6-4.6 6.7-10.8 13.2-6.2 6.6-13.7 11.1-7.4 4.6-15.9 6.2-8.5 1.6-18.1-1.9-5-1.9-8.4-5.7 2.9 2.6 6.7 4 9.6 3.4 18.1 1.9 8.5-1.6 15.9-6.2 7.4-4.5 13.7-11.1 6.2-6.5 10.8-13.2 4.7-6.8 7.9-12.6 3.2-5.9 4.4-8.8 1.9-4.6 1.6-7-0.1-0.6-0.3-1 1.6 0.4 2 2.7 0.3 2.4-1.6 7z"/>
					<path id="&lt;Path&gt;" class="s6" d="m438 613.9c0 0-1.7-1.5-5.8 0.3-1.7 2.4-1.2 3.4-1.2 3.4z"/>
					<path id="&lt;Path&gt;" class="s6" d="m802.3 559.2l-2 1.7c0 0-0.2-1.8 0.5-4.3 0.7-2.6 1.9 0.9 1.9 0.9z"/>
					<path id="&lt;Path&gt;" class="s6" d="m780.1 593.1c0 0-1.7-1.8-2.8-0.4-0.2 2.1 0.5 3.5 0.5 3.5l1.2-1.8z"/>
					<path id="&lt;Path&gt;" class="s6" d="m733.2 556.7l0.2 3.2-1.2 2.9c0 0-0.5-3.7-0.6-5.6-0.1-2 1.6-0.5 1.6-0.5z"/>
					<path id="&lt;Path&gt;" class="s6" d="m645.2 586.1c0 0-4-0.8-5.9 2.7-1.4 3.9-1.2 6.3-1.2 6.3 0 0 1.1-1.7 2.9-4.5 1.6-1.8 4.2-4.5 4.2-4.5z"/>
					<path id="&lt;Path&gt;" class="s6" d="m558.1 577.9l-0.7 5.8-1 5.3c0 0-0.9-4.5-0.7-7 0.3-2.4 2.4-4.1 2.4-4.1z"/>
					<path id="&lt;Path&gt;" class="s6" d="m543.1 626.7c0 0-2.8-0.2-4.4 2.4v4.8z"/>
					<path id="&lt;Path&gt;" class="s6" d="m366.3 533c0 0-2.3-2-8.7 2.3-0.5 1.9 1.1 2 1.1 2z"/>
					<path id="&lt;Path&gt;" class="s6" d="m460.2 593l-1.8 5.1 2.6-0.7c0 0 0.7-2 1.5-4.9 0.8-3-2.3 0.5-2.3 0.5z"/>
					<path id="&lt;Path&gt;" class="s6" d="m472.7 601.5c0 0-0.9-2.1-7.2-0.3-2 1.9 1.2 1.8 1.2 1.8z"/>
					<path id="&lt;Path&gt;" class="s6" d="m486.4 605.8l-1.7 1.9c0 0-0.3-2 0.1-4.4 0.4-2.3 1.9 0.5 1.9 0.5z"/>
					<path id="&lt;Path&gt;" class="s6" d="m588.7 622.4c0 0-2.9-0.7-4.9 1.7-1 2.3-0.1 4.1-0.1 4.1z"/>
					<path id="&lt;Path&gt;" class="s6" d="m717.1 557.9c0 0-2.5-1-4.4 1.3-1.1 2.2-0.2 4.5-0.2 4.5l1.9-2.8z"/>
					<path id="&lt;Path&gt;" class="s6" d="m719.7 592.4c0 0-1.7-1.2-3.2 0.5 0.4 2.3 0.9 2.8 0.9 2.8l0.8-1.1z"/>
				</g>
				<g id="&lt;Group&gt;">
					<g id="&lt;Group&gt;">
						<path id="&lt;Compound Path&gt;" fill-rule="evenodd" class="s7" d="m866.7 560.9q-1.7 0-3.7 1.6-2.4 1.9-4.6 6-2.2 4-7.8 10.8-5.5 6.7-12.6 12.4-7.1 5.7-15 8.9-8 3.2-15 0.2-1.8-0.7-3.1-2.2 0.3 0.2 0.6 0.3 7 3 14.9-0.2 8-3.2 15.1-8.9 7-5.7 12.6-12.4 5.5-6.8 7.8-10.8 2.1-4.1 4.5-6 2.4-1.9 4.3-1.6 1.4 0.3 2 1.9zm-17.1-45.6q-0.4-0.3-0.9-0.6-8-4.7-16.1-3.6-8.2 1-15.8 6.1-7.7 5.1-14.3 13.6-6.7 8.5-11.4 18.5-5 10.5-7.6 22-0.5 2.1-0.9 4.2-2.6 4.2-6.1 9.2-3.6 4.9-7.5 9-3.9 4.1-7.7 6.6-3.8 2.6-7.3 1.7-2.6-0.6-4.9-2.8 1.2 0.6 2.4 0.9 3.4 0.9 7.3-1.6 3.8-2.6 7.7-6.7 3.9-4.1 7.4-9 3.6-5 6.2-9.2 0.3-2.1 0.8-4.2 2.7-11.5 7.6-22 4.8-10 11.4-18.5 6.7-8.5 14.4-13.6 7.6-5.1 15.8-6.1 8.1-1.1 16 3.6 2 1.1 3.5 2.5zm-10.1 27.1q-1.1 3.4-4.6 7.1-3.5 3.7-10.4 7.2-7.1 3.5-12.1 4c-5.8 0.5-10.1-1.5-10.1-1.5l3-0.1q1.9-0.1 4.6-0.3 4.9-0.5 12.1-4 6.9-3.5 10.4-7.2 3.5-3.6 4.6-7.1 1.1-3.5-0.1-6.2-0.6-1.5-1.6-2.6 0.4 0.2 0.8 0.4 2.2 1.4 3.4 4.1 1.1 2.7 0 6.2zm-49.1 74.4q-4.7-3-7.5-8.4-2.1-4.3-3.2-9.4c0 0-0.1-4.4 0.5-5.3 0.5 5.2 3.2 12.5 5.3 16.6q1.9 3.8 4.9 6.5zm-4-99.7q0 0-0.1 0-2 0.5-5.5 3.5-13.3 12-24.4 22.3c-7.5 6.8-15.7 13.3-21.9 19-0.1-1.3 1.3-2.8 1.2-4.2q8.4-7.7 18.1-16.7 11.2-10.3 24.5-22.3 3.5-3 5.5-3.5 2-0.5 2.5 0.9 0.1 0.4 0.1 1zm-45.5 5.9q-1-0.2-2.2 0-2.8 0.5-6.3 2.8-3.4 2.2-6 6.6-1.1 1.5-1.7 3-0.6 1.5-1.5 2.9-3.1 4.2-6.9 9.7-3.9 5.5-8.2 11.9-4.2 6.3-8.8 13.1-3.6 5.2-7 10.6-1 1.3-2.1 3.2-2.5 4.2-6.3 8.8-3.9 4.6-7.9 8.3-4 3.8-7.3 5.7-3.4 1.9-4.8 0.8-0.7-0.5-1-1.5 1.3-0.1 3.3-1.2 3.3-1.9 7.3-5.7 4-3.7 7.8-8.3 3.9-4.6 6.4-8.8 1-1.9 2.1-3.2 3.4-5.4 6.9-10.6 4.6-6.8 8.9-13.1 4.3-6.4 8.1-11.9 3.9-5.5 7-9.7 0.9-1.4 1.5-2.9 0.5-1.5 1.7-3 2.5-4.4 6-6.6 3.5-2.3 6.3-2.7 2.8-0.5 4.1 0.6 0.5 0.5 0.6 1.2zm-5 100.4q-3.3-2.1-6.4-5.9-3.3-4.2-6.2-10.1-2.1-4.2-3.8-9 0.6-1 1.2-1.9 2.2 7 5.1 12.8 2.9 5.9 6.3 10.1 1.8 2.4 3.8 4zm-43.9-13.4q-6.6 10.7-3.6 16.3 0.9 1.7 2 2.9-2.7-1.4-4.5-4.8-3-5.6 3.6-16.3 6.5-10.8 25.2-29.9-0.6-4.3-0.6-8.6 0-1.4 0.1-2.7 1.3-2.1 2.7-4.1-0.2 4.4-0.2 8.7 0 4.3 0.5 8.6-18.6 19.1-25.2 29.9zm-1-82.7q-2.5-0.4-6.4 0.7-4.8 1.4-10.6 5.2-5.8 3.9-9.8 10.2-2.7 4.3-7 11.2-4.3 6.9-9.2 14.7-4.9 7.9-10.2 15.8-5.3 8-9.7 14.3-4.4 6.4-7.7 10.1-3.3 3.8-4.5 3.2-1.2-0.6-1.8-1.9 1.2-0.3 3.8-3.1 3.3-3.8 7.7-10.2 4.3-6.3 9.6-14.3 5.3-7.9 10.3-15.8 4.9-7.8 9.2-14.7 4.3-6.9 7-11.2 4-6.3 9.8-10.2 5.8-3.8 10.6-5.2 4.9-1.4 7.5-0.3 1.3 0.5 1.4 1.5zm-45.4 111.7q-1.8-0.7-3.2-2.8-2.4-3.7-3.4-10.4-1-6.7-0.5-15.9 0.2-5.4 1.1-11.2 2-3.1 3.9-6.2-2.1 10.1-2.5 19.3-0.5 9.1 0.5 15.9 1.1 6.7 3.4 10.4 0.3 0.5 0.7 0.9zm-1.1-101.2q-0.3 0-0.6-0.1-2.9-0.2-7.5 1.9-4.6 2.2-9.6 7.1-7.2 7.3-13.8 17.2-6.5 10-11.8 20.7-4.3 8.8-7.3 17.6-2.2 3.9-5.6 8.1-3.8 4.7-7.8 8.5-4.1 3.9-7.6 6.3-3.5 2.4-5.3 2.4-1.9 0.1-3.8-2.1 0.7 0.3 1.3 0.2 1.8 0 5.3-2.4 3.5-2.4 7.5-6.3 4.1-3.8 7.8-8.4 3.4-4.3 5.7-8.2 3-8.8 7.3-17.5 5.3-10.8 11.8-20.8 6.6-9.9 13.8-17.2 5-4.9 9.6-7 4.6-2.2 7.5-1.9 2.7 0.2 3.1 1.9zm-32.4-62.8q-0.1-0.1-0.2-0.1-5.4-2.5-11.1-0.2-5.7 2.3-11.5 8.1-5.8 5.8-11.4 14.7-5.7 8.9-10.7 19.7-5.1 10.8-9.3 22.5-4.3 11.8-7.2 23.8-4.5 17.7-6.6 34.7-0.7 6.1-1.1 11.7 0 0.1 0 0.1-1.9 4.3-6.8 11.5-4.9 7.2-11.4 13.5-6.5 6.3-14.2 10.2-7.6 4-14.8 1.7-2.3-0.7-3.9-2.4 0.7 0.3 1.4 0.5 7.2 2.3 14.8-1.7 7.6-3.9 14.2-10.2 6.5-6.3 11.4-13.5 4.9-7.2 6.7-11.5 0.1 0 0.1-0.1 0.4-5.6 1.1-11.7 2.1-17 6.6-34.7 2.9-12 7.1-23.8 4.3-11.7 9.3-22.5 5.1-10.8 10.7-19.7 5.7-8.9 11.5-14.7 5.7-5.8 11.5-8.1 5.7-2.3 11.1 0.2 1.6 0.8 2.7 2zm-16.7 38.4q-2.8 10.1-8.2 22-5.4 11.8-12.7 24.8-7.3 13-14.5 25.4 0.2-3.9 1-8 5.5-9.5 11-19.3 7.3-12.9 12.7-24.8 5.4-11.9 8.2-22 2.3-8.1 1.7-14.4 1.1-0.7 2.2-1.1 1.4 7.3-1.4 17.4zm-4 130.4q-3.2-1.5-4.7-5.6-1.1-3.1-1.2-7.2 1.3-1.6 2.6-3.3-0.6 7.4 1.2 12.3 0.8 2.3 2.1 3.8zm-42.4 9.7q-3-1.4-5.1-6.1-1.9-4.7-2.9-11.3 0.7-1.2 1.3-2.3 0.3-0.5 0.6-1.1 0.9 10.2 3.6 16.6 1.1 2.6 2.5 4.2zm-17.9-94.6q-1.3-0.8-2.8-1.5-8.3-3.9-16.3-2.2-8 1.8-15.2 7.6-7.1 5.8-13 14.9-5 7.7-8.5 16.4-3.3 0.6-5.7 1.3-2.9 0.7-5.2 1.2 0.4-1.3 0.7-2.6 1-0.3 2-0.5 2.4-0.7 5.7-1.3 3.5-8.7 8.5-16.4 5.9-9.1 13-14.9 7.1-5.8 15.2-7.5 8-1.8 16.3 2.1 3 1.4 5.3 3.4zm-9.3 26.9q-0.8 3.5-3.9 7.5-3.2 4-9.8 8.1-6.7 4.2-11.7 5.1c-6.9 1.1-10-0.7-10-0.7l2.9-0.4q2-0.3 4.6-0.8 4.9-0.9 11.7-5.1 6.6-4.1 9.7-8.1 3.2-3.9 4-7.5 0.7-3.5-0.7-6.1-0.5-1.1-1.3-2 0.1 0.1 0.2 0.1 2.3 1.1 3.7 3.7 1.4 2.7 0.6 6.2zm-43.5 77.4q-4-2.5-6.6-6.7-4.5-7.1-5.9-17.1-1.3-9.9 0.3-21.6 0.9-6.5 2.5-12.7 0.3-0.1 0.7-0.2 1.3-0.3 2.6-0.6-2.2 7.5-3.3 15.4-1.6 11.7-0.2 21.6 1.3 9.9 5.8 17.1 1.8 2.8 4.1 4.8zm-29.7-153.5q-7.3-5.1-17.5-7.7-14.4-3.4-32.6 0.1-18.2 3.5-35.8 10.6-19 7.9-32.6 19.9-13.7 12.1-20.2 24.6-6.6 12.5-4.8 23.4 1.1 7.3 6.8 12.2-8-5.3-9.4-14-1.7-11 4.8-23.5 6.6-12.5 20.2-24.6 13.7-12 32.7-19.9 17.6-7.1 35.8-10.6 18.1-3.5 32.6-0.1 12 3.1 20 9.6zm-3.3 70.5q-1.3 14.6-6 26.7-17.8 8.7-33.1 20.7-15.4 11.9-25.6 24.3-10.1 12.3-14.1 23.5-4 11.1 1.1 18.4 0.7 1.1 1.6 2-2.5-1.3-4.1-3.9-5.1-7.3-1.1-18.4 4-11.1 14.1-23.5 10.2-12.4 25.5-24.3 15.4-12 33.2-20.7 4.7-12 5.9-26.7 1.3-14.6-1.9-27-3.1-12.5-11.3-20.7-0.7-0.7-1.4-1.3 2.1 1.4 4 3.2 8.1 8.2 11.2 20.7 3.2 12.4 2 27zm-8.8 37.6q-5 13.2-11.4 24.6-6.4 11.4-12.9 19.2-6.4 7.7-12.3 11.1-6 3.5-9.8 0.4-0.4-0.3-0.6-0.8 3.3 1.1 7.8-1.5 6-3.4 12.4-11.1 6.5-7.8 12.9-19.2 5.4-9.6 9.7-20.4 2.1-1.2 4.2-2.3zm-70.2-84.8c-2.8 8.5-7.2 22.7-10.8 34.4q-5.5 17.5-9.9 38.9-4.5 21.3-7.2 46.4-2.8 25.1-1.5 53.2 0.2 4.1 1.3 6-0.6-0.1-1.1-0.4-2.4-1.3-2.8-7.5-1.2-28.1 1.5-53.2 2.8-25.1 7.2-46.4 4.5-21.4 10-38.9c3.1-9.9 7.2-22.7 9.7-30.3 1.3-0.7 3.6-2.2 3.6-2.2z"/>
					</g>
					<path id="&lt;Path&gt;" class="s7" d="m557.4 583.7l-1 5.3c0 0 2.4-1.4 3.6-3.4 1.1-2 1.1-8.3 1.1-8.3z"/>
					<path id="&lt;Path&gt;" class="s7" d="m484.7 607.7c0 0 7.5-0.4 11.7-1.2-0.2-1.2-0.4-1.3-0.4-1.3l-9.6 0.6z"/>
					<path id="&lt;Path&gt;" class="s7" d="m779 594.4c0 0 0.3 3.1 0.7 4.6 0.4 1.5 1 0.4 1 0.4l-0.6-6.3z"/>
					<path id="&lt;Path&gt;" class="s7" d="m734.5 561.9c0 0-1-0.7-1.1-2l3.3-3.1z"/>
					<path id="&lt;Path&gt;" class="s7" d="m714.4 560.9l2.7-3-0.2 4.9-1.3 4.5-1.4-0.4z"/>
					<path id="&lt;Path&gt;" class="s7" d="m718.2 594.6l1.5-2.2 1 4.1-0.4 1.4-0.8 0.5c0 0-1.2-3.3-1.3-3.8z"/>
					<path id="&lt;Path&gt;" class="s7" d="m641 590.6l4.2-4.5c0 0-0.9 2.7-1.7 6.4-0.7 3.6-3.9 6.2-3.9 6.2 0 0 0.9-6.2 1.4-8.1z"/>
					<path id="&lt;Path&gt;" class="s7" d="m585.6 625.9l3.1-3.5c0 0-0.4 1.6-0.6 5.7-1 2.2-2.6 2.9-2.6 2.9 0 0-0.2-3.1 0.1-5.1z"/>
					<path id="&lt;Path&gt;" class="s7" d="m540.4 630.8l2.7-4.1c0 0-0.6 3.2-0.1 7 0.5 3.9-2 2.4-2 2.4 0 0-0.7-3.8-0.6-5.3z"/>
					<path id="&lt;Path&gt;" class="s7" d="m469.3 602.4l3.4-0.9-0.9 3-3.2 0.6z"/>
					<path id="&lt;Path&gt;" class="s7" d="m461.9 594.8l-0.9 2.6 3.4-0.8 2.9-2.1-2.2-0.5z"/>
					<path id="&lt;Path&gt;" class="s7" d="m461.9 594.8l-3.5 3.3 4.2-1.1z"/>
					<path id="&lt;Path&gt;" class="s7" d="m434 615.9l4-2-2 5.2-3.8 1.3z"/>
					<path id="&lt;Path&gt;" class="s7" d="m734.5 561.9c0 0-0.5 0.4-2.3 0.9 0.6-1.5 1.2-2.9 1.2-2.9l1.7-0.5z"/>
					<path id="&lt;Path&gt;" class="s7" d="m800.3 560.9c0 0 7.2 0.5 12.1-0.2 4.9-0.8-4.3-1.2-4.3-1.2l-5.8-0.3z"/>
				</g>
			</g>
			<g id="&lt;Group&gt;">
				<g id="&lt;Group&gt;">
					<path id="&lt;Path&gt;" class="s0" d="m98.4 565c-6.6 0-12.1-5.2-12.6-11.8-1.3-21.2-18.3-38.2-39.5-39.5-6.6-0.5-11.8-6-11.8-12.6 0-6.4 4.8-11.8 11.1-12.6q0.3 0 0.6 0 1.5-0.1 3.2-0.3 0.3-0.1 0.6-0.1 1.5-0.2 3.3-0.6 0.1-0.1 0.2-0.1 0.6-0.2 1.2-0.3 0.2 0 0.3-0.1l0.5-0.1q0.6-0.2 1.3-0.4l0.2-0.1q0.2-0.1 0.4-0.1 0.4-0.2 0.7-0.3c0.2 0 0.6-0.2 0.7-0.3q0.4-0.1 0.8-0.3 0.2 0 0.4-0.1 0 0 0.1-0.1 1.7-0.7 3-1.4 0.1 0 0.2-0.1 0.6-0.3 1.4-0.8 0.2-0.1 0.3-0.1 0.5-0.3 0.6-0.4 0.2-0.1 0.4-0.2 0.2-0.1 0.3-0.2 0.1-0.1 0.1-0.1 1.2-0.7 2.4-1.7 0.2-0.1 0.3-0.2c0.8-0.5 1.6-1.2 2.6-2.1q0.1-0.1 0.3-0.2 0-0.1 0.1-0.1 0.1-0.2 0.3-0.3 0-0.1 0.1-0.1 0.1-0.1 0.3-0.3c0 0 0.2-0.2 0.2-0.2 0.1-0.1 0.3-0.3 0.3-0.3q0.2-0.2 0.4-0.4 0.1-0.1 0.2-0.2c2.1-2.2 4-4.6 5.6-7.2 0.3-0.5 0.7-1 0.9-1.4q0-0.1 0.1-0.2c1.8-3.3 3.2-6.7 4.1-10.4 0 0 0.1-0.2 0.1-0.2 0.1-0.3 0.2-0.7 0.2-0.8q0-0.4 0.1-0.7l0.1-0.1q0-0.2 0-0.4 0.4-1.6 0.5-3.4 0 0 0.1-0.1 0.1-1 0.1-2 0-0.3 0.1-0.5c0.7-6.4 6.1-11.2 12.5-11.2 6.7 0 12.2 5.2 12.6 11.8 1.4 21.2 18.3 38.1 39.5 39.5 6.6 0.4 11.8 6 11.8 12.6 0 6.3-4.8 11.7-11.1 12.5q-0.5 0.1-1 0.1c-9.3 0.6-17.9 4.3-25 10.5q-0.1 0.1-0.3 0.2 0 0.1 0 0.1-0.2 0.2-0.5 0.4c-0.1 0.1-0.3 0.3-0.3 0.3q0 0.1-0.1 0.1-0.2 0.2-0.4 0.4c0 0-0.4 0.4-0.5 0.5l0.1-0.1c0 0-0.6 0.6-0.6 0.6q-0.1 0.1-0.2 0.2-0.1 0.2-0.3 0.3-0.1 0.2-0.4 0.4c-0.6 0.7-1.2 1.5-2 2.4-0.6 0.8-1 1.4-1.4 2q0 0.1-0.1 0.2c-0.8 1.2-1.6 2.4-2.3 3.8-0.5 0.9-1 2-1.5 3.2q-0.5 1.2-1 2.4 0 0.1-0.1 0.2 0 0.1-0.1 0.5-0.1 0.2-0.2 0.3-0.2 0.7-0.4 1.5c0 0.1-0.1 0.2-0.1 0.3q-0.1 0.3-0.1 0.6-0.1 0.3-0.2 0.7-0.1 0.1-0.1 0.3-0.4 1.5-0.7 3.5c-0.2 1.1-0.3 2.3-0.4 3.7q0 0.3 0 0.6 0 0.1-0.1 0.1c-0.8 6.3-6.1 11.1-12.5 11.1z"/>
					<path id="&lt;Path&gt;" class="s0" d="m213.9 640.5c-5.8 0-10.7-4.5-11.1-10.3-0.6-10.3-8.8-18.5-19-19.1-5.8-0.4-10.4-5.3-10.4-11.1 0-5.6 4.2-10.3 9.7-11q0.4-0.1 0.7-0.1 0.6 0 1.4-0.1 0.2-0.1 0.4-0.1 0.7-0.1 1.5-0.3 0.1 0 0.1 0 0.4-0.1 0.8-0.2l0.2-0.1q0.3-0.1 0.6-0.2h0.3q0.2-0.1 0.5-0.2l0.1-0.1q0.3-0.1 0.6-0.2c0 0 0.1 0 0.1-0.1q0.9-0.3 1.4-0.6 0.1-0.1 0.2-0.1 0.3-0.2 0.6-0.4 0.2-0.1 0.4-0.2 0.2-0.1 0.3-0.2c0 0 0.2 0 0.2-0.1q0.5-0.3 1.1-0.7 0.1-0.1 0.2-0.2c0.4-0.3 0.8-0.6 1.2-1q0.1-0.1 0.2-0.1c0.1-0.1 0.4-0.4 0.4-0.4q0.1-0.1 0.2-0.2 0.1-0.1 0.2-0.3 0.1 0 0.1 0 1.5-1.6 2.7-3.4 0.2-0.4 0.4-0.7 0-0.1 0.1-0.2 1.3-2.3 2-4.9c0-0.1 0.1-0.4 0.1-0.5q0-0.2 0.1-0.4 0-0.1 0-0.3 0.2-0.7 0.2-1.5 0.1-0.1 0.1-0.1 0-0.5 0-1 0.1-0.2 0.1-0.5c0.6-5.6 5.4-9.8 11-9.8 5.9 0 10.8 4.5 11.1 10.4 0.7 10.2 8.9 18.4 19.1 19 5.8 0.4 10.4 5.3 10.4 11.1 0 5.6-4.2 10.3-9.8 11q-0.4 0.1-0.9 0.1c-4.4 0.3-8.5 2.1-11.9 5q-0.1 0.1-0.1 0.2-0.2 0.1-0.4 0.3c0 0-0.8 0.8-0.8 0.8 0 0-0.2 0.2-0.2 0.3q-0.2 0.1-0.3 0.2-0.3 0.4-0.9 1.1c-0.2 0.4-0.5 0.6-0.6 0.9q-0.1 0.1-0.1 0.1-0.6 0.9-1.1 1.9c-0.3 0.4-0.5 0.9-0.8 1.5q-0.2 0.6-0.4 1.2 0 0.1-0.1 0.1c0 0-0.1 0.3-0.1 0.4q-0.1 0.4-0.2 0.7 0 0.1-0.1 0.1v0.2q-0.1 0.3-0.1 0.6h-0.1q-0.1 0.7-0.3 1.7-0.1 0.7-0.2 1.7 0 0.3 0 0.6 0 0.1 0 0.1c-0.7 5.6-5.5 9.7-11.1 9.7z"/>
					<path id="&lt;Path&gt;" class="s0" d="m145.1 175.1c-5.8 0-10.7-4.6-11.1-10.4-0.6-10.2-8.8-18.4-19-19.1-5.9-0.4-10.4-5.2-10.4-11.1 0-5.6 4.1-10.3 9.7-11q0.3-0.1 0.7-0.1 0.6 0 1.4-0.1 0.2 0 0.4-0.1 0.7-0.1 1.5-0.3 0 0 0.1 0 0.3-0.1 0.7-0.2h0.3q0.3-0.1 0.6-0.2l0.2-0.1q0.3-0.1 0.6-0.2h0.1q0.3-0.2 0.5-0.3c0 0 0.2 0 0.2 0q0.8-0.4 1.4-0.7 0.1 0 0.1-0.1 0.4-0.1 0.7-0.3 0.2-0.1 0.3-0.2 0.2-0.1 0.4-0.3c0 0 0.1 0 0.1 0q0.6-0.4 1.1-0.8 0.2-0.1 0.3-0.2c0.3-0.2 0.7-0.6 1.2-1q0.1-0.1 0.2-0.1c0-0.1 0.3-0.4 0.3-0.4q0.1-0.1 0.2-0.2 0.2-0.1 0.3-0.2 0-0.1 0.1-0.1 1.5-1.6 2.7-3.4 0.2-0.3 0.3-0.7 0.1-0.1 0.1-0.2 1.4-2.3 2-4.9c0 0 0.1-0.4 0.1-0.4q0.1-0.3 0.1-0.5 0.1-0.1 0.1-0.2 0.1-0.8 0.2-1.6 0-0.1 0-0.1 0.1-0.5 0.1-0.9 0-0.3 0.1-0.5c0.6-5.7 5.3-9.9 11-9.9 5.9 0 10.7 4.6 11.1 10.4 0.7 10.2 8.8 18.4 19 19 5.9 0.4 10.4 5.3 10.4 11.1 0 5.6-4.2 10.4-9.7 11.1q-0.5 0-0.9 0c-4.4 0.4-8.5 2.1-11.9 5.1q-0.1 0-0.2 0.1-0.1 0.2-0.3 0.3c0 0-0.8 0.8-0.8 0.8q-0.2 0.2-0.3 0.3-0.1 0.1-0.2 0.2c-0.3 0.3-0.5 0.7-0.9 1.1-0.3 0.4-0.5 0.7-0.6 0.9q-0.1 0.1-0.1 0.2-0.6 0.8-1.2 1.8c-0.2 0.4-0.4 0.9-0.7 1.5q-0.2 0.6-0.5 1.2 0 0.1 0 0.2c0 0-0.1 0.3-0.1 0.4q-0.2 0.3-0.2 0.6-0.1 0.1-0.1 0.2v0.1q-0.1 0.3-0.2 0.6-0.2 0.7-0.3 1.7-0.1 0.8-0.2 1.8 0 0.2 0 0.5-0.1 0.1-0.1 0.1c-0.7 5.6-5.4 9.8-11 9.8z"/>
					<path id="&lt;Path&gt;" class="s0" d="m925 118.2c-5.4 0-9.8-4.2-10.2-9.5-0.2-3.4-2.8-6-6.1-6.2-5.4-0.4-9.6-4.8-9.6-10.2 0-5.1 3.9-9.4 9-10.1q0.3 0 0.6 0 0.2 0 0.4-0.1 0.1 0 0.2 0 0.1 0 0.4-0.1 0.2 0 0.4-0.1c0 0 0.2 0 0.2 0q0.1-0.1 0.2-0.1c0.1 0 0.3-0.1 0.3-0.1q0.3-0.2 0.4-0.2c0 0 0.4-0.2 0.5-0.3q0 0 0.1 0 0.2-0.1 0.3-0.3 0.1 0 0.2-0.1c0 0 0.1-0.1 0.3-0.3 0.1 0 0.2-0.1 0.2-0.2q0.1 0 0.2-0.1 0.5-0.5 0.8-1.1l0.1-0.2c0.1 0 0.1 0 0.1-0.1q0.4-0.7 0.6-1.6c0 0 0.1-0.1 0.1-0.1 0-0.1 0-0.3 0-0.3q0.1-0.1 0.1-0.4 0-0.1 0-0.1 0-0.1 0-0.3 0-0.2 0.1-0.5c0.5-5.1 4.9-9 10.1-9 5.4 0 9.8 4.2 10.1 9.6 0.2 3.2 2.9 5.9 6.2 6.1 5.3 0.3 9.5 4.8 9.5 10.1 0 5.2-3.8 9.5-8.9 10.1q-0.4 0.1-0.8 0.1c-1.7 0.2-3 1-3.8 1.6 0 0.1-0.4 0.4-0.4 0.4 0 0.1-0.2 0.2-0.2 0.2q-0.1 0.2-0.2 0.3-0.1 0.1-0.2 0.2 0 0.1-0.1 0.2-0.2 0.3-0.3 0.6-0.1 0.1-0.3 0.4 0 0.3-0.1 0.5c0 0-0.1 0.1-0.1 0.2 0 0 0 0.1 0 0.2q-0.1 0.1-0.1 0.3-0.1 0.1-0.1 0.5-0.1 0.2-0.1 0.6 0 0.2 0 0.5 0 0 0 0.1c-0.7 5-5 8.9-10.1 8.9z"/>
					<path id="&lt;Path&gt;" class="s0" d="m1051.4 306.1c-6.5 0-11.9-5.1-12.3-11.5-1.2-19-16.4-34.1-35.3-35.3-6.5-0.5-11.5-5.9-11.5-12.3 0-6.2 4.6-11.5 10.8-12.2q0.3-0.1 0.7-0.1 1.2-0.1 2.7-0.3 0.3 0 0.6-0.1 1.4-0.1 2.9-0.5 0.1 0 0.2-0.1 0.6-0.1 1.1-0.2 0.2-0.1 0.3-0.1l0.4-0.1q0.6-0.2 1.1-0.4l0.3-0.1q0.1 0 0.3-0.1 0.4-0.1 0.7-0.2c0.1 0 0.2-0.1 0.6-0.2q0.3-0.2 0.7-0.3c0.1-0.1 0.4-0.2 0.4-0.2q1.6-0.7 2.7-1.3 0.1 0 0.1 0 0.7-0.4 1.3-0.8 0.2-0.1 0.4-0.1 0.3-0.2 0.4-0.3 0.2-0.1 0.4-0.2 0.1-0.1 0.3-0.2 0-0.1 0.1-0.1 1-0.7 2.1-1.5 0.1-0.1 0.3-0.2c0.7-0.5 1.4-1.1 2.3-1.9q0.1-0.1 0.2-0.2 0.1 0 0.1 0 0.2-0.2 0.3-0.3c0-0.1 0.2-0.2 0.3-0.3 0.1-0.1 0.2-0.2 0.3-0.3 0 0 0.2-0.2 0.2-0.2q0.2-0.2 0.4-0.4 0.1-0.1 0.1-0.1c2-2 3.7-4.2 5.1-6.4 0.3-0.5 0.5-1 0.7-1.3q0.1-0.1 0.1-0.2c1.7-2.9 2.9-6 3.7-9.3 0 0 0.1-0.2 0.1-0.2 0.1-0.3 0.1-0.6 0.2-0.7q0-0.3 0.1-0.6v-0.1q0-0.2 0.1-0.3 0.3-1.5 0.4-3.1 0 0 0.1-0.1 0.1-0.9 0.1-1.8 0-0.2 0.1-0.5c0.7-6.2 5.9-10.9 12.2-10.9 6.5 0 11.9 5.1 12.3 11.6 1.2 18.9 16.3 34 35.2 35.2 6.5 0.4 11.6 5.8 11.6 12.3 0 6.2-4.7 11.4-10.8 12.2q-0.5 0.1-1 0.1c-8.3 0.6-16 3.8-22.3 9.4-0.1 0-0.3 0.2-0.3 0.2q-0.2 0.2-0.5 0.4c0 0.1-0.3 0.3-0.3 0.3q-0.2 0.2-0.3 0.4c-0.1 0-1 0.9-1 0.9q0 0.1-0.1 0.2-0.2 0.1-0.3 0.3-0.2 0.1-0.4 0.4c-0.5 0.5-1.1 1.2-1.7 2.1-0.6 0.7-1 1.2-1.3 1.7q0 0.1-0.1 0.2c-0.7 1.1-1.4 2.2-2.1 3.4-0.4 0.8-0.9 1.8-1.3 2.9q-0.5 1-0.9 2.1 0 0.1-0.1 0.2 0 0.2-0.1 0.4-0.1 0.2-0.1 0.4-0.2 0.5-0.4 1.3-0.1 0.1-0.1 0.2-0.1 0.3-0.1 0.5-0.1 0.4-0.2 0.7l-0.1 0.2q-0.3 1.4-0.6 3.2c-0.1 1-0.2 2-0.3 3.3q0 0.3-0.1 0.6 0 0 0 0.1c-0.8 6.1-6 10.8-12.2 10.8z"/>
					<path id="&lt;Path&gt;" class="s0" d="m939.7 582.9c-5.6 0-10.3-4.4-10.7-10-0.4-6.9-5.9-12.5-12.9-12.9-5.6-0.4-10-5.1-10-10.7 0-5.3 4.1-9.9 9.4-10.6q0.3 0 0.7 0 0.4 0 0.9-0.1 0.2 0 0.3-0.1 0.4 0 1-0.1 0-0.1 0-0.1 0.3 0 0.6-0.1h0.1q0.2-0.1 0.4-0.2h0.2q0.2-0.1 0.3-0.2h0.1q0.2-0.1 0.4-0.1 0.1-0.1 0.1-0.1 0.6-0.2 0.9-0.4 0.1 0 0.2-0.1 0.2-0.1 0.4-0.2 0.1-0.1 0.3-0.2c0.1 0 0.3-0.2 0.3-0.2q0.3-0.2 0.7-0.5 0.1-0.1 0.2-0.1 0.3-0.3 0.8-0.7 0.1 0 0.1-0.1c0.1 0 0.2-0.2 0.3-0.2 0 0 0.3-0.4 0.3-0.4q1.1-1.1 1.9-2.3 0.1-0.2 0.2-0.4 0.1-0.1 0.1-0.2 0.9-1.5 1.3-3.3c0 0 0.1-0.3 0.1-0.3 0-0.1 0.1-0.4 0.1-0.5q0.1-0.5 0.2-1 0-0.1 0-0.1 0-0.3 0-0.7 0.1-0.2 0.1-0.4c0.6-5.4 5.1-9.5 10.6-9.5 5.6 0 10.3 4.4 10.6 10 0.5 6.9 6 12.4 12.9 12.9 5.6 0.4 10 5 10 10.6 0 5.4-4 9.9-9.3 10.6q-0.5 0.1-0.9 0.1c-3 0.2-5.8 1.4-8.1 3.4q0 0 0 0-0.1 0.2-0.3 0.3c0 0.1-0.5 0.5-0.5 0.5-0.1 0.1-0.3 0.4-0.4 0.4q-0.2 0.3-0.5 0.7c-0.1 0.2-0.3 0.4-0.4 0.6q-0.1 0.1-0.1 0.2-0.4 0.5-0.8 1.2c-0.1 0.3-0.3 0.6-0.5 1q-0.1 0.4-0.3 0.8 0 0.1 0 0.1c-0.1 0.1-0.1 0.3-0.1 0.4q-0.1 0.1-0.1 0.3c-0.1 0-0.1 0.1-0.1 0.1q-0.1 0.3-0.1 0.6-0.1 0.4-0.2 1.1-0.1 0.5-0.2 1.2 0 0.3 0 0.5 0 0.1 0 0.1c-0.7 5.3-5.3 9.4-10.6 9.4z"/>
				</g>
				<g id="&lt;Group&gt;">
					<g id="&lt;Group&gt;">
						<path id="&lt;Path&gt;" class="s8" d="m156 498.3c0 1.8-1.3 3.3-3.1 3.5h-0.2c-11.8 0.7-22.5 5.5-30.8 12.9q0 0-0.1 0-0.1 0.1-0.2 0.2-0.1 0.1-0.2 0.2c0 0-0.1 0.1-0.1 0.1q-0.1 0-0.1 0.1-0.1 0.1-0.2 0.2-0.1 0.1-0.2 0.2-0.1 0-0.1 0.1-0.2 0.1-0.3 0.3-0.1 0.1-0.2 0.2-0.1 0-0.1 0-0.1 0.1-0.2 0.2 0 0-0.1 0.1 0 0.1-0.1 0.1 0 0 0 0l-0.1 0.1q0 0-0.1 0.1c0 0-0.1 0.1-0.1 0.1-0.1 0.1-0.1 0.1-0.2 0.2 0 0-0.1 0.1-0.1 0.1 0 0-0.1 0.1-0.1 0.1q-0.1 0.2-0.3 0.3-0.1 0.2-0.3 0.3 0 0.1-0.1 0.2-0.1 0.1-0.2 0.2-1.5 1.6-2.8 3.3-0.9 1.2-1.8 2.5-1.6 2.3-2.8 4.7-1.1 1.9-1.9 3.9-0.6 1.4-1.1 2.8-0.2 0.6-0.4 1.2-0.4 1-0.7 2.1-0.2 0.5-0.3 1.2-0.1 0.4-0.2 0.9-0.6 2.1-0.9 4.3-0.3 2.2-0.5 4.5 0 0.1 0 0.2c-0.2 1.7-1.7 3.1-3.5 3.1-1.8 0-3.4-1.5-3.5-3.3-1.6-25.8-22.2-46.4-48-48-1.8-0.1-3.3-1.6-3.3-3.5 0-1.8 1.4-3.3 3.1-3.5q2.2-0.1 4.3-0.4 0.1-0.1 0.1-0.1 0.1 0 0.2 0 2.1-0.3 4.1-0.8 0.1 0 0.1 0c0.3-0.1 0.6-0.1 0.8-0.2 0.4-0.1 0.9-0.2 1.3-0.4q1-0.3 2-0.6 0.6-0.2 1.2-0.4 0.8-0.3 1.6-0.6 0.6-0.2 1.2-0.5 2-0.8 3.8-1.8 1-0.5 1.9-1 0.7-0.4 1.4-0.8 0.3-0.2 0.7-0.5 1.6-1 3.1-2.1 0 0 0 0 1.7-1.3 3.2-2.7 0.1 0 0.1-0.1c0.1 0 0.1-0.1 0.2-0.1q0.1-0.1 0.2-0.2c0.1-0.1 0.1-0.1 0.1-0.1q0.1-0.1 0.1-0.1c0.1-0.1 0.2-0.1 0.2-0.2q0.2-0.2 0.3-0.3 0.1-0.1 0.3-0.2 0 0 0.1-0.1 0 0 0.1-0.1c0.1-0.1 0.2-0.2 0.3-0.3 0 0 0.1-0.1 0.1-0.1 0.1-0.1 0.1-0.1 0.2-0.2q0 0 0 0 0.1-0.1 0.2-0.2 0.1-0.1 0.1-0.2c2.7-2.6 5-5.6 6.9-8.8q0.7-0.9 1.2-1.9c2.2-3.9 3.9-8.2 5.1-12.7 0.1-0.5 0.3-1.1 0.4-1.7q0.1-0.4 0.1-0.8 0.5-2.1 0.7-4.3 0.1-1.3 0.2-2.6c0.2-1.8 1.7-3.1 3.5-3.1 1.9 0 3.4 1.4 3.5 3.3 1.7 25.7 22.3 46.3 48 48 1.9 0.1 3.3 1.6 3.3 3.5z"/>
					</g>
					<g id="&lt;Group&gt;">
						<path id="&lt;Path&gt;" class="s9" d="m248.2 597.2c0 1-0.8 1.9-1.8 2h-0.1c-6.8 0.4-12.9 3.2-17.7 7.4q0 0-0.1 0 0 0.1-0.1 0.1 0 0.1-0.1 0.1 0 0.1 0 0.1-0.1 0-0.1 0.1-0.1 0-0.1 0.1-0.1 0-0.1 0.1-0.1 0-0.1 0-0.1 0.1-0.2 0.2 0 0.1-0.1 0.1 0 0-0.1 0.1 0 0 0 0-0.1 0.1-0.1 0.1 0 0-0.1 0.1 0 0 0 0 0 0.1-0.1 0.1 0 0 0 0-0.1 0.1-0.1 0.2-0.1 0-0.1 0 0 0-0.1 0.1 0 0.1-0.1 0.1-0.1 0.1-0.2 0.2 0 0.1-0.1 0.1 0 0.1-0.1 0.1-0.8 0.9-1.6 1.9-0.5 0.7-1 1.5-0.9 1.3-1.7 2.7-0.5 1.1-1 2.2-0.4 0.8-0.7 1.6-0.1 0.3-0.2 0.7-0.2 0.6-0.4 1.2-0.1 0.3-0.1 0.7-0.1 0.2-0.2 0.5-0.3 1.2-0.5 2.5-0.2 1.2-0.2 2.5-0.1 0.1-0.1 0.2c-0.1 1-0.9 1.7-2 1.7-1 0-1.9-0.8-2-1.9-0.9-14.7-12.7-26.5-27.5-27.5-1.1-0.1-1.9-0.9-1.9-2 0-1 0.8-1.9 1.8-2q1.2-0.1 2.4-0.3 0.1 0 0.1 0 0.1 0 0.1 0 1.2-0.2 2.3-0.4 0.1 0 0.1-0.1 0.3 0 0.5-0.1 0.4-0.1 0.7-0.2 0.6-0.1 1.2-0.3 0.3-0.1 0.6-0.2 0.5-0.2 1-0.4 0.3-0.1 0.7-0.3 1.1-0.4 2.2-1 0.5-0.3 1-0.6 0.4-0.2 0.8-0.5 0.2-0.1 0.4-0.2 0.9-0.6 1.8-1.3 0 0 0 0 1-0.7 1.9-1.5 0 0 0 0 0.1-0.1 0.1-0.1 0.1-0.1 0.1-0.1 0.1-0.1 0.1-0.1 0 0 0.1-0.1 0 0 0.1-0.1 0.1 0 0.2-0.1 0-0.1 0.1-0.1 0-0.1 0-0.1 0.1 0 0.1-0.1 0.1-0.1 0.2-0.1 0-0.1 0.1-0.1 0-0.1 0.1-0.1 0 0 0 0 0-0.1 0.1-0.1 0-0.1 0.1-0.1c1.5-1.6 2.8-3.2 3.9-5.1q0.4-0.5 0.7-1.1 1.9-3.4 2.9-7.2 0.1-0.5 0.2-1 0.1-0.2 0.1-0.5 0.3-1.2 0.4-2.5 0.1-0.7 0.1-1.5c0.1-1 1-1.7 2-1.7 1.1 0 2 0.8 2 1.9 1 14.7 12.8 26.5 27.6 27.5 1 0.1 1.9 0.9 1.9 2z"/>
					</g>
					<g id="&lt;Group&gt;">
						<path id="&lt;Path&gt;" class="s10" d="m179.3 131.7c0 1.1-0.7 1.9-1.7 2h-0.2c-6.7 0.5-12.9 3.2-17.6 7.4q0 0-0.1 0.1 0 0-0.1 0.1 0 0-0.1 0.1 0 0-0.1 0 0 0.1 0 0.1-0.1 0-0.2 0.1 0 0-0.1 0.1 0 0 0 0-0.1 0.1-0.2 0.2-0.1 0.1-0.1 0.1 0 0.1-0.1 0.1 0 0-0.1 0.1 0 0 0 0 0 0.1-0.1 0.1 0 0 0 0v0.1q-0.1 0-0.1 0 0 0-0.1 0.1 0 0-0.1 0.1 0 0 0 0-0.1 0.1-0.1 0.1-0.1 0.1-0.2 0.2 0 0.1-0.1 0.1-0.1 0.1-0.1 0.2-0.1 0-0.1 0.1-0.9 0.9-1.6 1.8-0.6 0.8-1 1.5-0.9 1.3-1.7 2.7-0.6 1.1-1.1 2.2-0.3 0.8-0.6 1.7-0.1 0.3-0.2 0.6-0.2 0.6-0.4 1.2-0.1 0.3-0.2 0.7-0.1 0.3-0.1 0.5-0.3 1.2-0.5 2.5-0.2 1.3-0.3 2.6 0 0 0 0.1c-0.1 1-1 1.8-2 1.8-1.1 0-1.9-0.9-2-1.9-0.9-14.8-12.8-26.6-27.5-27.6-1.1 0-1.9-0.9-1.9-2 0-1 0.7-1.9 1.7-2q1.3-0.1 2.5-0.2 0 0 0.1 0 0 0 0.1-0.1 1.2-0.1 2.3-0.4 0.1 0 0.1 0 0.2-0.1 0.5-0.2 0.3 0 0.7-0.1 0.6-0.2 1.2-0.4 0.3-0.1 0.6-0.2 0.5-0.2 1-0.4 0.3-0.1 0.6-0.2 1.2-0.5 2.2-1.1 0.6-0.3 1.1-0.6 0.4-0.2 0.8-0.4 0.2-0.2 0.4-0.3 0.9-0.6 1.8-1.2 0 0 0-0.1 0.9-0.7 1.8-1.5 0.1 0 0.1 0 0-0.1 0.1-0.1 0.1-0.1 0.1-0.1 0 0 0.1-0.1 0 0 0 0 0.1-0.1 0.2-0.1 0-0.1 0.1-0.2 0.1-0.1 0.2-0.1 0 0 0-0.1 0 0 0.1 0 0.1-0.1 0.2-0.2 0 0 0-0.1 0.1 0 0.1-0.1 0 0 0 0 0.1 0 0.2-0.1 0-0.1 0-0.1c1.5-1.5 2.9-3.2 4-5q0.3-0.6 0.7-1.2 1.9-3.3 2.9-7.2 0.1-0.5 0.2-1 0-0.2 0.1-0.5 0.2-1.2 0.4-2.5 0.1-0.7 0.1-1.4c0.1-1 1-1.8 2-1.8 1.1 0 2 0.8 2 1.9 1 14.8 12.8 26.6 27.5 27.5 1.1 0.1 1.9 1 1.9 2z"/>
					</g>
					<g id="&lt;Group&gt;">
						<path id="&lt;Path&gt;" class="s11" d="m944.5 89.5c0 0.6-0.4 1-1 1.1-3.6 0.2-6.9 1.7-9.4 3.9q0 0 0 0.1-0.1 0-0.1 0 0 0-0.1 0.1 0 0 0 0 0 0 0 0-0.1 0.1-0.1 0.1 0 0-0.1 0 0 0.1 0 0.1 0 0-0.1 0.1 0 0 0 0-0.1 0-0.1 0 0 0.1 0 0.1 0 0 0 0-0.1 0-0.1 0.1 0 0 0 0 0 0 0 0-0.1 0-0.1 0.1 0 0 0 0-0.1 0-0.1 0 0 0.1 0 0.1 0 0-0.1 0.1 0 0-0.1 0.1 0 0 0 0-0.1 0.1-0.1 0.1-0.4 0.5-0.8 1-0.3 0.4-0.6 0.8-0.5 0.6-0.9 1.4-0.3 0.6-0.5 1.2-0.2 0.4-0.4 0.8 0 0.2-0.1 0.4-0.1 0.3-0.2 0.6 0 0.2-0.1 0.4 0 0.1-0.1 0.3-0.1 0.6-0.2 1.3-0.1 0.7-0.2 1.4 0 0 0 0c0 0.6-0.5 1-1 1-0.6 0-1.1-0.5-1.1-1-0.5-7.9-6.8-14.2-14.7-14.7-0.5 0-1-0.5-1-1.1 0-0.5 0.4-1 1-1q0.6-0.1 1.3-0.2 0 0 0 0 0.1 0 0.1 0 0.6-0.1 1.2-0.2 0.1 0 0.1 0 0.1-0.1 0.2-0.1 0.2 0 0.4-0.1 0.3-0.1 0.6-0.2 0.2 0 0.4-0.1 0.2-0.1 0.5-0.2 0.2-0.1 0.3-0.1 0.6-0.3 1.2-0.6 0.3-0.1 0.6-0.3 0.2-0.1 0.4-0.3 0.1 0 0.2-0.1 0.5-0.3 1-0.6 0 0 0-0.1 0.5-0.3 0.9-0.8 0.1 0 0.1 0 0 0 0 0 0.1-0.1 0.1-0.1 0 0 0 0 0.1 0 0.1-0.1 0 0 0 0 0.1-0.1 0.1-0.1 0.1 0 0.1-0.1 0 0 0 0 0 0 0 0 0.1-0.1 0.2-0.1 0 0 0-0.1 0 0 0 0 0 0 0 0 0.1 0 0.1-0.1 0 0 0.1 0 1.2-1.2 2.1-2.7 0.1-0.3 0.3-0.6 1-1.8 1.6-3.9 0-0.2 0.1-0.5 0-0.1 0-0.2 0.2-0.7 0.2-1.4 0.1-0.3 0.1-0.7c0.1-0.6 0.5-1 1.1-1 0.5 0 1 0.4 1 1 0.5 7.9 6.8 14.2 14.7 14.7 0.6 0 1 0.5 1 1z"/>
					</g>
					<path id="&lt;Path&gt;" class="s12" d="m1104.2 244.2c0 1.6-1.3 3-2.9 3.2h-0.1c-10.8 0.7-20.6 5-28.1 11.7q-0.1 0.1-0.1 0.1-0.1 0.1-0.2 0.1-0.1 0.1-0.2 0.2c0 0.1-0.1 0.1-0.1 0.1q0 0-0.1 0.1-0.1 0.1-0.2 0.2-0.1 0.1-0.2 0.2 0 0-0.1 0-0.1 0.2-0.3 0.3 0 0.1-0.1 0.2-0.1 0-0.1 0.1-0.1 0-0.1 0.1-0.1 0-0.1 0.1-0.1 0.1-0.1 0.1 0 0-0.1 0v0.1q-0.1 0-0.1 0.1c0 0-0.1 0.1-0.1 0.1-0.1 0-0.1 0.1-0.2 0.2 0 0-0.1 0-0.1 0 0 0.1-0.1 0.1-0.1 0.1q-0.1 0.2-0.2 0.3-0.2 0.1-0.3 0.3-0.1 0.1-0.2 0.2 0 0.1-0.1 0.1-1.3 1.5-2.5 3-0.9 1.2-1.7 2.3-1.4 2.1-2.6 4.3-0.9 1.8-1.7 3.6-0.5 1.3-1 2.6-0.2 0.5-0.4 1-0.3 0.9-0.6 1.9-0.1 0.5-0.3 1.1-0.1 0.4-0.2 0.8-0.5 2-0.8 4-0.3 2-0.4 4.1 0 0.1 0 0.1c-0.2 1.7-1.6 2.9-3.2 2.9-1.7 0-3.1-1.3-3.2-3-1.5-23.5-20.3-42.3-43.8-43.8-1.7-0.1-3-1.5-3-3.2 0-1.7 1.2-3 2.8-3.2q2-0.1 3.9-0.4 0.1 0 0.2 0 0 0 0.1 0 1.9-0.3 3.7-0.8 0.1 0 0.2 0c0.2-0.1 0.5-0.1 0.7-0.2q0.6-0.1 1.2-0.3 0.9-0.3 1.8-0.6 0.5-0.1 1.1-0.3 0.7-0.3 1.5-0.6 0.5-0.2 1-0.4 1.8-0.8 3.5-1.7 0.9-0.4 1.7-0.9 0.7-0.3 1.3-0.7 0.3-0.2 0.6-0.5 1.5-0.9 2.8-1.9 0.1 0 0.1 0 1.5-1.2 2.9-2.4 0.1-0.1 0.1-0.1c0.1-0.1 0.1-0.1 0.2-0.2q0.1-0.1 0.2-0.1 0-0.1 0.1-0.1 0-0.1 0.1-0.1c0-0.1 0.1-0.1 0.1-0.2q0.2-0.1 0.3-0.2 0.1-0.1 0.2-0.2 0.1-0.1 0.1-0.1 0.1-0.1 0.1-0.1c0.1-0.1 0.2-0.2 0.3-0.3 0 0 0.1-0.1 0.1-0.1 0.1-0.1 0.1-0.1 0.2-0.2q0 0 0 0 0.1-0.1 0.2-0.2 0-0.1 0.1-0.1c2.4-2.5 4.5-5.1 6.3-8q0.6-0.9 1-1.8c2.1-3.6 3.6-7.5 4.7-11.6 0.1-0.5 0.2-1 0.3-1.5q0.1-0.4 0.2-0.8 0.4-1.9 0.6-3.9 0.1-1.2 0.2-2.4c0.2-1.6 1.5-2.8 3.2-2.8 1.7 0 3.1 1.3 3.2 3 1.5 23.5 20.3 42.3 43.8 43.8 1.7 0.1 3 1.5 3 3.2z"/>
					<path id="&lt;Path&gt;" class="s13" d="m966.9 546.5c0 0.8-0.6 1.5-1.4 1.6h-0.1c-5.2 0.3-10 2.4-13.7 5.7q0 0 0 0.1-0.1 0-0.1 0-0.1 0.1-0.1 0.1 0 0-0.1 0.1 0 0 0 0-0.1 0.1-0.1 0.1 0 0-0.1 0.1 0 0 0 0-0.1 0.1-0.2 0.2 0 0-0.1 0 0 0.1 0 0.1 0 0-0.1 0 0 0.1 0 0.1 0 0-0.1 0 0 0.1 0 0.1 0 0-0.1 0 0 0.1 0 0.1 0 0-0.1 0.1 0 0 0 0-0.1 0-0.1 0.1 0 0-0.1 0.1-0.1 0.1-0.1 0.1-0.1 0.1-0.1 0.1-0.1 0.1-0.1 0.1-0.6 0.7-1.2 1.4-0.5 0.6-0.8 1.2-0.7 1-1.3 2.1-0.5 0.8-0.8 1.7-0.3 0.6-0.5 1.3-0.1 0.2-0.2 0.5-0.2 0.5-0.3 0.9-0.1 0.3-0.1 0.6-0.1 0.2-0.2 0.4-0.2 0.9-0.3 1.9-0.2 1-0.2 2-0.1 0-0.1 0.1c-0.1 0.8-0.7 1.4-1.5 1.4-0.8 0-1.5-0.7-1.6-1.5-0.7-11.5-9.9-20.7-21.4-21.4-0.8-0.1-1.5-0.7-1.5-1.6 0-0.8 0.6-1.4 1.4-1.5q1-0.1 1.9-0.2 0.1 0 0.1 0 0 0 0.1 0 0.9-0.2 1.8-0.4 0 0 0.1 0 0.1-0.1 0.3-0.1 0.3-0.1 0.6-0.2 0.4-0.1 0.9-0.2 0.2-0.1 0.5-0.2 0.4-0.1 0.7-0.3 0.3-0.1 0.6-0.2 0.8-0.4 1.7-0.8 0.4-0.2 0.8-0.5 0.3-0.1 0.6-0.3 0.2-0.1 0.3-0.2 0.7-0.5 1.4-1 0 0 0 0 0.8-0.6 1.5-1.2 0 0 0 0 0 0 0.1-0.1 0 0 0.1-0.1 0 0 0 0 0.1 0 0.1-0.1 0 0 0.1 0 0-0.1 0.1-0.2 0 0 0.1-0.1 0 0 0 0 0.1 0 0.1 0 0.1-0.1 0.1-0.2 0.1 0 0.1 0 0-0.1 0.1-0.1 0 0 0 0 0-0.1 0.1-0.1 0-0.1 0-0.1 1.8-1.8 3.1-3.9 0.3-0.4 0.5-0.9 1.5-2.6 2.3-5.6 0.1-0.4 0.1-0.8 0.1-0.1 0.1-0.3 0.2-1 0.3-2 0.1-0.5 0.1-1.1c0.1-0.8 0.8-1.4 1.6-1.4 0.8 0 1.5 0.6 1.5 1.5 0.8 11.4 10 20.6 21.4 21.4 0.9 0 1.5 0.7 1.5 1.5z"/>
				</g>
			</g>
		</g>
	</g>
</svg>